<svg width="48" height="49" viewBox="0 0 48 49" fill="none" xmlns="http://www.w3.org/2000/svg">
<rect y="0.232422" width="48" height="48" rx="24" fill="#2264DB"/>
<path d="M31 33.2324V27.2324M28 30.2324H34M24 27.2324H20C18.1362 27.2324 17.2044 27.2324 16.4693 27.5369C15.4892 27.9429 14.7105 28.7216 14.3045 29.7017C14 30.4368 14 31.3687 14 33.2324M27.5 15.5232C28.9659 16.1166 30 17.5537 30 19.2324C30 20.9111 28.9659 22.3483 27.5 22.9417M25.5 19.2324C25.5 21.4416 23.7091 23.2324 21.5 23.2324C19.2909 23.2324 17.5 21.4416 17.5 19.2324C17.5 17.0233 19.2909 15.2324 21.5 15.2324C23.7091 15.2324 25.5 17.0233 25.5 19.2324Z" stroke="white" stroke-width="2" stroke-linecap="round" stroke-linejoin="round"/>
</svg>
