<svg width="48" height="49" viewBox="0 0 48 49" fill="none" xmlns="http://www.w3.org/2000/svg">
<rect y="0.232422" width="48" height="48" rx="24" fill="#2264DB"/>
<path d="M20.9996 26.2324C20.9996 26.2324 22.3121 27.7324 24.4996 27.7324C26.6871 27.7324 27.9996 26.2324 27.9996 26.2324M27.2496 21.2324H27.2596M21.7496 21.2324H21.7596M24.4996 32.2324C29.194 32.2324 32.9996 28.4268 32.9996 23.7324C32.9996 19.038 29.194 15.2324 24.4996 15.2324C19.8052 15.2324 15.9996 19.038 15.9996 23.7324C15.9996 24.6824 16.1555 25.596 16.443 26.449C16.5512 26.77 16.6053 26.9305 16.6151 27.0539C16.6247 27.1756 16.6174 27.261 16.5873 27.3794C16.5568 27.4992 16.4894 27.6239 16.3547 27.8732L14.7191 30.9008C14.4857 31.3326 14.3691 31.5485 14.3952 31.7152C14.4179 31.8603 14.5034 31.9881 14.6288 32.0647C14.7728 32.1525 15.0169 32.1273 15.5052 32.0768L20.6262 31.5474C20.7813 31.5314 20.8588 31.5234 20.9295 31.5261C20.999 31.5288 21.0481 31.5353 21.1159 31.5509C21.1848 31.5668 21.2714 31.6002 21.4448 31.667C22.3928 32.0322 23.4228 32.2324 24.4996 32.2324ZM27.7496 21.2324C27.7496 21.5086 27.5258 21.7324 27.2496 21.7324C26.9735 21.7324 26.7496 21.5086 26.7496 21.2324C26.7496 20.9563 26.9735 20.7324 27.2496 20.7324C27.5258 20.7324 27.7496 20.9563 27.7496 21.2324ZM22.2496 21.2324C22.2496 21.5086 22.0258 21.7324 21.7496 21.7324C21.4735 21.7324 21.2496 21.5086 21.2496 21.2324C21.2496 20.9563 21.4735 20.7324 21.7496 20.7324C22.0258 20.7324 22.2496 20.9563 22.2496 21.2324Z" stroke="white" stroke-width="2" stroke-linecap="round" stroke-linejoin="round"/>
</svg>
