<svg width="48" height="49" viewBox="0 0 48 49" fill="none" xmlns="http://www.w3.org/2000/svg">
<rect y="0.232422" width="48" height="48" rx="24" fill="#2264DB"/>
<path d="M28 20.2324V16.733C28 15.9013 28 15.4854 27.8248 15.2298C27.6717 15.0066 27.4346 14.8549 27.1678 14.8095C26.8623 14.7575 26.4847 14.9317 25.7295 15.2803L16.859 19.3744C16.1855 19.6852 15.8488 19.8406 15.6021 20.0817C15.3841 20.2948 15.2176 20.5549 15.1155 20.8422C15 21.1672 15 21.5381 15 22.2798V27.2324M28.5 26.7324H28.51M15 23.4324L15 30.0324C15 31.1525 15 31.7125 15.218 32.1404C15.4097 32.5167 15.7157 32.8226 16.092 33.0144C16.5198 33.2324 17.0799 33.2324 18.2 33.2324H29.8C30.9201 33.2324 31.4802 33.2324 31.908 33.0144C32.2843 32.8226 32.5903 32.5167 32.782 32.1404C33 31.7125 33 31.1525 33 30.0324V23.4324C33 22.3123 33 21.7522 32.782 21.3244C32.5903 20.9481 32.2843 20.6421 31.908 20.4504C31.4802 20.2324 30.9201 20.2324 29.8 20.2324L18.2 20.2324C17.0799 20.2324 16.5198 20.2324 16.092 20.4504C15.7157 20.6421 15.4097 20.9481 15.218 21.3244C15 21.7522 15 22.3123 15 23.4324ZM29 26.7324C29 27.0085 28.7761 27.2324 28.5 27.2324C28.2239 27.2324 28 27.0085 28 26.7324C28 26.4562 28.2239 26.2324 28.5 26.2324C28.7761 26.2324 29 26.4562 29 26.7324Z" stroke="white" stroke-width="2" stroke-linecap="round" stroke-linejoin="round"/>
</svg>
