<svg width="48" height="49" viewBox="0 0 48 49" fill="none" xmlns="http://www.w3.org/2000/svg">
<rect y="0.232422" width="48" height="48" rx="24" fill="#2264DB"/>
<path d="M16 34.0499C16.6026 34.2324 17.4165 34.2324 18.8 34.2324H29.2C30.5835 34.2324 31.3974 34.2324 32 34.0499M16 34.0499C15.8708 34.0107 15.7513 33.9632 15.638 33.9054C15.0735 33.6178 14.6146 33.1589 14.327 32.5944C14 31.9527 14 31.1126 14 29.4324V19.0324C14 17.3523 14 16.5122 14.327 15.8705C14.6146 15.306 15.0735 14.847 15.638 14.5594C16.2798 14.2324 17.1198 14.2324 18.8 14.2324H29.2C30.8802 14.2324 31.7202 14.2324 32.362 14.5594C32.9265 14.847 33.3854 15.306 33.673 15.8705C34 16.5122 34 17.3523 34 19.0324V29.4324C34 31.1126 34 31.9527 33.673 32.5944C33.3854 33.1589 32.9265 33.6178 32.362 33.9054C32.2487 33.9632 32.1292 34.0107 32 34.0499M16 34.0499C16.0004 33.2405 16.0052 32.8123 16.0769 32.4521C16.3925 30.8653 17.6329 29.6249 19.2196 29.3093C19.606 29.2324 20.0707 29.2324 21 29.2324H27C27.9293 29.2324 28.394 29.2324 28.7804 29.3093C30.3671 29.6249 31.6075 30.8653 31.9231 32.4521C31.9948 32.8123 31.9996 33.2405 32 34.0499M28 21.7324C28 23.9416 26.2091 25.7324 24 25.7324C21.7909 25.7324 20 23.9416 20 21.7324C20 19.5233 21.7909 17.7324 24 17.7324C26.2091 17.7324 28 19.5233 28 21.7324Z" stroke="white" stroke-width="2" stroke-linecap="round" stroke-linejoin="round"/>
</svg>
