<svg width="48" height="49" viewBox="0 0 48 49" fill="none" xmlns="http://www.w3.org/2000/svg">
<rect y="0.232422" width="48" height="48" rx="24" fill="#2264DB"/>
<path d="M24 14.2324C27 16.2324 27.9228 20.5245 28 24.2324C27.9228 27.9404 27 32.2324 24 34.2324M24 14.2324C21 16.2324 20.0772 20.5245 20 24.2324C20.0772 27.9404 21 32.2324 24 34.2324M24 14.2324C18.4772 14.2324 14 18.7096 14 24.2324M24 14.2324C29.5228 14.2324 34 18.7096 34 24.2324M24 34.2324C29.5229 34.2324 34 29.7553 34 24.2324M24 34.2324C18.4772 34.2324 14 29.7553 14 24.2324M34 24.2324C32 27.2324 27.708 28.1552 24 28.2324C20.292 28.1552 16 27.2324 14 24.2324M34 24.2324C32 21.2324 27.708 20.3097 24 20.2324C20.292 20.3097 16 21.2324 14 24.2324" stroke="white" stroke-width="2" stroke-linecap="round" stroke-linejoin="round"/>
</svg>
