<svg width="32" height="33" viewBox="0 0 32 33" fill="none" xmlns="http://www.w3.org/2000/svg">
<rect y="0.232422" width="32" height="32" rx="16" fill="white"/>
<path d="M21.8333 23.7324V18.7324M19.3333 21.2324H24.3333M16 18.7324H12.6667C11.1135 18.7324 10.337 18.7324 9.72439 18.9862C8.90763 19.3245 8.25872 19.9734 7.92041 20.7901C7.66667 21.4027 7.66667 22.1793 7.66667 23.7324M18.9167 8.97472C20.1383 9.46921 21 10.6668 21 12.0658C21 13.4647 20.1383 14.6623 18.9167 15.1568M17.25 12.0658C17.25 13.9067 15.7576 15.3991 13.9167 15.3991C12.0757 15.3991 10.5833 13.9067 10.5833 12.0658C10.5833 10.2248 12.0757 8.73242 13.9167 8.73242C15.7576 8.73242 17.25 10.2248 17.25 12.0658Z" stroke="#2264DB" stroke-width="1.66667" stroke-linecap="round" stroke-linejoin="round"/>
</svg>
