<svg width="32" height="33" viewBox="0 0 32 33" fill="none" xmlns="http://www.w3.org/2000/svg">
<rect y="0.232422" width="32" height="32" rx="16" fill="white"/>
<path d="M23.0833 12.2972L16 16.2324M16 16.2324L8.91664 12.2972M16 16.2324L16 24.1491M23.5 19.6145V12.8503C23.5 12.5647 23.5 12.422 23.4579 12.2946C23.4207 12.182 23.3599 12.0786 23.2795 11.9914C23.1886 11.8927 23.0638 11.8234 22.8142 11.6847L16.6475 8.25881C16.4112 8.12751 16.293 8.06187 16.1679 8.03613C16.0571 8.01335 15.9429 8.01335 15.8321 8.03613C15.707 8.06187 15.5888 8.12751 15.3525 8.25881L9.18581 11.6847C8.93621 11.8234 8.8114 11.8927 8.72053 11.9914C8.64013 12.0786 8.57929 12.182 8.54207 12.2946C8.5 12.422 8.5 12.5647 8.5 12.8503V19.6145C8.5 19.9001 8.5 20.0428 8.54207 20.1702C8.57929 20.2828 8.64013 20.3862 8.72053 20.4735C8.8114 20.5721 8.93621 20.6414 9.18581 20.7801L15.3525 24.206C15.5888 24.3373 15.707 24.403 15.8321 24.4287C15.9429 24.4515 16.0571 24.4515 16.1679 24.4287C16.293 24.403 16.4112 24.3373 16.6475 24.206L22.8142 20.7801C23.0638 20.6414 23.1886 20.5721 23.2795 20.4735C23.3599 20.3862 23.4207 20.2828 23.4579 20.1702C23.5 20.0428 23.5 19.9001 23.5 19.6145Z" stroke="#2264DB" stroke-width="1.66667" stroke-linecap="round" stroke-linejoin="round"/>
</svg>
