<svg width="32" height="33" viewBox="0 0 32 33" fill="none" xmlns="http://www.w3.org/2000/svg">
<rect y="0.232422" width="32" height="32" rx="16" fill="white"/>
<path d="M21 20.3991V22.3991C21 22.8658 21 23.0992 20.9092 23.2774C20.8293 23.4342 20.7018 23.5617 20.545 23.6416C20.3667 23.7324 20.1334 23.7324 19.6667 23.7324H12.3333C11.8666 23.7324 11.6333 23.7324 11.455 23.6416C11.2982 23.5617 11.1707 23.4342 11.0908 23.2774C11 23.0992 11 22.8658 11 22.3991V20.3991M11.6667 20.3991H20.3333C21.7335 20.3991 22.4335 20.3991 22.9683 20.1266C23.4387 19.8869 23.8212 19.5045 24.0609 19.0341C24.3333 18.4993 24.3333 17.7992 24.3333 16.3991V12.7324C24.3333 11.3323 24.3333 10.6322 24.0609 10.0974C23.8212 9.62704 23.4387 9.24459 22.9683 9.00491C22.4335 8.73242 21.7335 8.73242 20.3333 8.73242H11.6667C10.2665 8.73242 9.56647 8.73242 9.0317 9.00491C8.56129 9.24459 8.17884 9.62704 7.93916 10.0974C7.66667 10.6322 7.66667 11.3323 7.66667 12.7324V16.3991C7.66667 17.7992 7.66667 18.4993 7.93916 19.0341C8.17884 19.5045 8.56129 19.8869 9.0317 20.1266C9.56647 20.3991 10.2665 20.3991 11.6667 20.3991Z" stroke="#2264DB" stroke-width="1.66667" stroke-linecap="round" stroke-linejoin="round"/>
</svg>
