<svg width="32" height="33" viewBox="0 0 32 33" fill="none" xmlns="http://www.w3.org/2000/svg">
<rect y="0.232422" width="32" height="32" rx="16" fill="white"/>
<path d="M11.0786 15.5896C11.0268 15.2558 11 14.9138 11 14.5656C11 10.8837 14.0044 7.89893 17.7105 7.89893C21.4166 7.89893 24.421 10.8837 24.421 14.5656C24.421 15.3973 24.2677 16.1935 23.9876 16.9277C23.9295 17.0802 23.9004 17.1564 23.8872 17.2159C23.8741 17.2749 23.869 17.3164 23.8676 17.3768C23.8662 17.4378 23.8744 17.5049 23.891 17.6392L24.2265 20.3644C24.2628 20.6594 24.2809 20.8069 24.2319 20.9141C24.1889 21.0081 24.1125 21.0827 24.0176 21.1235C23.9092 21.1701 23.7622 21.1485 23.4681 21.1054L20.8137 20.7164C20.6751 20.696 20.6058 20.6859 20.5427 20.6862C20.4803 20.6866 20.4371 20.6912 20.376 20.704C20.3142 20.717 20.2353 20.7466 20.0775 20.8057C19.3414 21.0814 18.5437 21.2323 17.7105 21.2323C17.362 21.2323 17.0197 21.2059 16.6856 21.155M12.3597 24.5656C14.8304 24.5656 16.8333 22.5136 16.8333 19.9823C16.8333 17.451 14.8304 15.3989 12.3597 15.3989C9.88891 15.3989 7.88597 17.451 7.88597 19.9823C7.88597 20.4911 7.9669 20.9805 8.1163 21.4379C8.17945 21.6312 8.21102 21.7278 8.22139 21.7939C8.2322 21.8628 8.2341 21.9015 8.23007 21.9712C8.22621 22.0379 8.20952 22.1133 8.17613 22.2642L7.66667 24.5656L10.1623 24.2248C10.2986 24.2062 10.3667 24.1969 10.4261 24.1973C10.4888 24.1977 10.522 24.2011 10.5834 24.2133C10.6418 24.2249 10.7285 24.2556 10.9019 24.3168C11.3588 24.478 11.8493 24.5656 12.3597 24.5656Z" stroke="#2264DB" stroke-width="1.33333" stroke-linecap="round" stroke-linejoin="round"/>
</svg>
