<svg width="32" height="33" viewBox="0 0 32 33" fill="none" xmlns="http://www.w3.org/2000/svg">
<rect y="0.232422" width="32" height="32" rx="16" fill="white"/>
<path d="M19.3333 12.0658C19.3333 11.2908 19.3333 10.9033 19.2482 10.5854C19.017 9.72264 18.3431 9.04878 17.4804 8.81761C17.1625 8.73242 16.775 8.73242 16 8.73242C15.225 8.73242 14.8375 8.73242 14.5196 8.81761C13.6569 9.04878 12.983 9.72264 12.7519 10.5854C12.6667 10.9033 12.6667 11.2908 12.6667 12.0658M10.3333 23.7324H21.6667C22.6001 23.7324 23.0668 23.7324 23.4233 23.5508C23.7369 23.391 23.9919 23.136 24.1517 22.8224C24.3333 22.4659 24.3333 21.9992 24.3333 21.0658V14.7324C24.3333 13.799 24.3333 13.3323 24.1517 12.9758C23.9919 12.6622 23.7369 12.4072 23.4233 12.2474C23.0668 12.0658 22.6001 12.0658 21.6667 12.0658H10.3333C9.39992 12.0658 8.93321 12.0658 8.57669 12.2474C8.26308 12.4072 8.00812 12.6622 7.84833 12.9758C7.66667 13.3323 7.66667 13.799 7.66667 14.7324V21.0658C7.66667 21.9992 7.66667 22.4659 7.84833 22.8224C8.00812 23.136 8.26308 23.391 8.57669 23.5508C8.93321 23.7324 9.39992 23.7324 10.3333 23.7324Z" stroke="#2264DB" stroke-width="1.66667" stroke-linecap="round" stroke-linejoin="round"/>
</svg>
