<svg width="32" height="33" viewBox="0 0 32 33" fill="none" xmlns="http://www.w3.org/2000/svg">
<rect y="0.232422" width="32" height="32" rx="16" fill="white"/>
<path d="M11 15.3989H14.3333M12.6667 13.7323V17.0656M18.5 16.2323H18.5083M21 14.5656H21.0083M14.7075 10.3989H17.2926C19.48 10.3989 20.5737 10.3989 21.4321 10.8135C22.188 11.1784 22.816 11.7632 23.2339 12.4911C23.7085 13.3178 23.7864 14.4088 23.9423 16.5906L24.1473 19.461C24.2478 20.8684 23.1332 22.0656 21.7221 22.0656C21.0006 22.0656 20.3163 21.7451 19.8543 21.1908L19.5417 20.8156C19.2557 20.4725 19.1127 20.3009 18.9499 20.1622C18.6086 19.8716 18.1954 19.678 17.7537 19.6019C17.5429 19.5656 17.3196 19.5656 16.8729 19.5656H15.1272C14.6805 19.5656 14.4571 19.5656 14.2464 19.6019C13.8046 19.678 13.3914 19.8716 13.0501 20.1622C12.8873 20.3009 12.7443 20.4724 12.4583 20.8156L12.1457 21.1908C11.6838 21.7451 10.9995 22.0656 10.2779 22.0656C8.86688 22.0656 7.75219 20.8684 7.85272 19.461L8.05775 16.5906C8.2136 14.4088 8.29152 13.3178 8.76616 12.4911C9.18405 11.7632 9.81205 11.1784 10.5679 10.8135C11.4264 10.3989 12.5201 10.3989 14.7075 10.3989Z" stroke="#2264DB" stroke-width="1.66667" stroke-linecap="round" stroke-linejoin="round"/>
</svg>
