<svg width="40" height="40" viewBox="0 0 40 40" fill="none" xmlns="http://www.w3.org/2000/svg">
<rect width="40" height="40" rx="20" fill="#4369F0"/>
<path d="M17.5001 24.5833H12.9167M15.4167 20H11.6667M17.5001 15.4167H13.3334M24.1667 12.5L18.6697 20.1958C18.4264 20.5365 18.3048 20.7068 18.31 20.8488C18.3146 20.9724 18.3739 21.0876 18.4718 21.1632C18.5843 21.25 18.7936 21.25 19.2122 21.25H23.3334L22.5001 27.5L27.9971 19.8042C28.2404 19.4635 28.3621 19.2932 28.3568 19.1512C28.3522 19.0276 28.2929 18.9124 28.195 18.8368C28.0825 18.75 27.8732 18.75 27.4546 18.75H23.3334L24.1667 12.5Z" stroke="white" stroke-width="1.5" stroke-linecap="round" stroke-linejoin="round"/>
</svg>
