<svg width="40" height="40" viewBox="0 0 40 40" fill="none" xmlns="http://www.w3.org/2000/svg">
<rect width="40" height="40" rx="20" fill="#4369F0"/>
<g clip-path="url(#clip0_1006_48135)">
<path d="M26.6667 20C26.6667 23.6819 23.682 26.6666 20.0001 26.6666M26.6667 20C26.6667 16.3181 23.682 13.3333 20.0001 13.3333M26.6667 20H13.3334M20.0001 26.6666C16.3182 26.6666 13.3334 23.6819 13.3334 20M20.0001 26.6666C21.6676 24.8411 22.6157 22.4719 22.6672 20C22.6157 17.528 21.6676 15.1589 20.0001 13.3333M20.0001 26.6666C18.3326 24.8411 17.3854 22.4719 17.3339 20C17.3854 17.528 18.3326 15.1589 20.0001 13.3333M13.3334 20C13.3334 16.3181 16.3182 13.3333 20.0001 13.3333M15.0001 26.6666C15.0001 27.5871 14.2539 28.3333 13.3334 28.3333C12.4129 28.3333 11.6667 27.5871 11.6667 26.6666C11.6667 25.7462 12.4129 25 13.3334 25C14.2539 25 15.0001 25.7462 15.0001 26.6666ZM28.3334 26.6666C28.3334 27.5871 27.5872 28.3333 26.6667 28.3333C25.7463 28.3333 25.0001 27.5871 25.0001 26.6666C25.0001 25.7462 25.7463 25 26.6667 25C27.5872 25 28.3334 25.7462 28.3334 26.6666ZM15.0001 13.3333C15.0001 14.2538 14.2539 15 13.3334 15C12.4129 15 11.6667 14.2538 11.6667 13.3333C11.6667 12.4128 12.4129 11.6666 13.3334 11.6666C14.2539 11.6666 15.0001 12.4128 15.0001 13.3333ZM28.3334 13.3333C28.3334 14.2538 27.5872 15 26.6667 15C25.7463 15 25.0001 14.2538 25.0001 13.3333C25.0001 12.4128 25.7463 11.6666 26.6667 11.6666C27.5872 11.6666 28.3334 12.4128 28.3334 13.3333Z" stroke="white" stroke-width="1.5" stroke-linecap="round" stroke-linejoin="round"/>
</g>
<defs>
<clipPath id="clip0_1006_48135">
<rect width="20" height="20" fill="white" transform="translate(10 10)"/>
</clipPath>
</defs>
</svg>
