<svg width="415" height="164" viewBox="0 0 415 164" fill="none" xmlns="http://www.w3.org/2000/svg">
<path d="M393.984 98.1687C393.598 98.2649 393.405 98.2649 393.212 98.5536C392.923 99.0348 392.73 99.7084 392.054 99.7084C391.958 99.7084 391.861 99.9009 391.861 99.9971C392.054 100.575 391.668 100.671 391.283 100.671C390.993 100.671 390.8 100.767 390.704 100.863C390.414 101.152 390.125 101.441 389.739 101.729C389.257 102.018 389.064 102.595 388.582 102.788C388.099 102.98 388.389 103.558 387.81 103.75C387.328 103.943 386.942 104.231 386.556 104.616C386.363 104.809 386.073 104.905 385.977 105.097C385.591 105.964 384.434 106.06 384.048 106.926C384.048 107.022 383.951 107.118 383.855 107.118C383.469 107.118 383.18 107.407 382.89 107.6C381.636 108.466 380.575 109.524 379.224 110.198C377.392 111.738 375.462 112.892 373.533 114.143C372.182 115.009 370.639 115.876 369.192 116.838L368.613 117.223L367.552 117.8L366.298 118.474C366.009 118.763 365.526 118.859 365.333 119.147C365.044 119.629 364.465 119.436 364.176 119.821C363.694 120.206 363.018 120.495 362.439 120.783C361.378 121.265 360.414 121.842 359.353 122.419C359.256 122.516 359.16 122.708 358.967 122.708C358.291 122.708 357.809 123.285 357.134 123.478C356.459 123.67 355.88 124.055 355.205 124.44C354.433 124.825 353.758 125.499 352.793 125.499C352.6 125.499 352.407 125.691 352.214 125.788C351.153 126.365 349.995 126.942 348.838 127.327L347.005 128.193L344.4 129.348C343.532 129.733 342.664 130.503 341.603 130.503C341.314 130.503 341.121 130.695 340.831 130.792C340.06 131.08 339.191 131.658 338.323 131.946C336.78 132.428 335.236 133.197 333.596 133.679C332.149 134.064 330.702 134.93 329.255 135.315C328.87 135.411 328.58 135.603 328.387 135.988C328.291 136.181 328.194 136.277 328.001 136.181C327.808 136.084 327.519 135.988 327.23 136.084C326.554 136.277 325.879 136.566 325.204 136.854C324.722 137.239 324.143 137.335 323.564 137.528C322.406 137.913 321.249 138.009 320.188 138.683C319.03 138.971 317.969 139.549 316.715 139.838C315.847 140.03 315.075 140.319 314.207 140.704C313.146 141.185 311.988 141.57 310.831 141.762C310.348 141.858 309.866 141.955 309.48 142.147C308.033 142.917 306.393 143.591 304.657 143.591C304.56 143.591 304.464 143.687 304.367 143.687C303.596 144.072 302.727 144.553 301.763 144.553C301.57 144.553 301.473 144.649 301.28 144.745C300.895 144.938 300.412 145.13 299.93 145.13C299.448 145.13 298.965 145.323 298.483 145.515C297.615 145.9 296.747 145.996 295.878 146.285C293.756 146.959 291.441 147.344 289.319 148.017C288.065 148.402 286.714 148.499 285.46 149.076C284.399 149.172 283.434 149.653 282.277 149.75C281.216 149.846 280.155 150.231 279.093 150.423C278.611 150.519 278.129 150.712 277.743 150.712C275.717 151.193 273.595 151.482 271.569 151.963C269.543 152.444 267.421 152.829 265.299 153.31C265.009 153.31 264.913 153.406 264.624 153.695C264.527 153.791 264.431 153.791 264.238 153.791C263.466 153.503 262.598 153.599 261.826 153.888L260.283 154.176C259.414 154.176 258.546 154.465 257.678 154.657C256.81 154.85 255.942 154.754 255.074 154.946C254.591 155.042 254.109 155.042 253.627 155.139L252.565 155.331C251.697 155.523 250.733 155.716 249.768 155.716C249.382 155.812 248.996 155.716 248.61 155.908C246.778 156.486 244.945 156.197 243.208 156.678C242.051 156.678 240.99 156.775 239.928 156.967C238.482 157.256 237.131 157.544 235.684 157.352C234.816 157.544 233.851 157.641 232.887 157.641H232.597C232.115 157.929 231.44 158.026 230.957 157.929C230.089 157.929 229.317 158.218 228.449 158.122C227.677 158.41 226.809 158.218 225.941 158.507C225.652 158.603 225.169 158.507 224.783 158.699C223.433 158.507 222.179 158.603 220.925 158.892C220.057 159.084 219.188 158.795 218.417 159.084C217.549 158.795 216.68 158.988 215.812 159.084C214.172 159.277 212.532 158.988 210.989 159.469C210.699 159.565 210.41 159.469 210.217 159.469C208.384 159.469 206.648 159.565 204.912 159.95H204.14C203.947 159.95 203.947 159.95 203.754 160.143C203.658 160.239 203.561 160.335 203.561 160.239C202.982 159.758 202.211 159.854 201.535 159.95C200.86 160.046 200.088 160.143 199.413 160.143H195.361C194.204 160.143 193.143 159.95 192.082 160.335C191.792 160.431 191.406 160.239 191.117 160.239C190.731 160.239 190.442 160.431 190.056 160.431C189.188 160.239 188.32 160.335 187.451 160.624C187.258 160.624 187.162 160.624 187.065 160.528C186.776 160.239 186.487 160.143 186.197 160.335C185.908 160.431 185.522 160.528 185.233 160.431C184.847 160.335 184.557 160.335 184.172 160.431C183.882 160.528 183.593 160.431 183.303 160.335C183.014 160.335 182.917 160.239 182.628 160.335C182.049 160.528 181.47 160.335 180.795 160.335C180.506 160.335 180.12 160.239 179.734 160.239C178.962 160.239 178.191 160.143 177.322 160.239C176.551 160.335 175.876 160.335 175.007 160.143C174.814 160.143 174.429 160.335 174.139 160.335C173.946 160.335 173.753 160.431 173.56 160.431C172.499 160.046 171.342 160.239 170.281 160.143C169.509 160.046 168.737 160.239 168.062 160.046C167.194 159.758 166.229 160.239 165.361 159.95C164.686 160.335 163.914 159.854 163.239 160.046C161.984 159.662 160.73 159.854 159.476 159.854C158.898 159.854 158.319 160.143 157.836 159.662C157.74 159.565 157.451 159.565 157.258 159.565C156.968 159.662 156.775 159.758 156.486 159.662C155.714 159.373 155.039 159.662 154.267 159.565C153.688 159.854 153.013 159.662 152.434 159.469C151.759 159.277 151.084 159.084 150.312 159.469C150.216 159.469 150.023 159.469 149.83 159.373C149.637 159.373 149.444 159.277 149.251 159.277C148.383 159.565 147.515 159.084 146.646 159.18C145.682 158.795 144.621 158.892 143.56 158.892C143.174 158.892 142.691 158.892 142.306 158.795C141.727 158.603 141.052 158.603 140.473 158.603C139.122 158.603 137.868 158.218 136.614 158.218C136.518 158.218 136.421 158.122 136.325 158.122C135.553 157.833 134.685 158.122 133.913 157.833C133.817 157.737 133.527 157.833 133.334 157.929C132.948 157.929 132.563 157.737 132.08 157.737C131.694 157.641 131.212 157.737 130.73 157.737C130.73 157.737 130.633 157.737 130.633 157.641C130.054 157.352 129.379 157.352 128.8 157.352C127.739 157.352 126.678 157.448 125.714 156.967C124.942 157.063 124.17 156.967 123.495 156.775C123.012 157.063 122.627 156.775 122.144 156.775C121.662 156.775 121.083 156.678 120.601 156.486C119.926 156.197 119.154 156.486 118.479 156.101C117.996 156.486 117.61 156.101 117.128 156.101C116.646 155.908 116.067 155.812 115.585 155.812C115.102 155.812 114.716 155.523 114.234 155.716C113.655 155.812 113.173 155.523 112.691 155.427C112.112 155.331 111.533 155.139 110.858 155.331C110.568 155.427 110.183 155.427 109.99 155.139C109.604 154.85 109.218 154.85 108.832 154.85C107.096 154.85 105.359 154.561 103.719 154.272C102.465 154.08 101.308 154.08 100.15 153.888C100.054 153.791 100.054 153.888 99.9573 153.888C99.0891 153.888 98.2209 153.695 97.3527 153.503C96.8704 153.406 96.4845 153.118 96.0022 153.021C95.6163 152.925 95.134 153.214 94.6517 153.021C94.3623 152.925 93.9764 153.118 93.5906 153.118C93.0118 152.733 92.24 152.925 91.6612 152.637C91.2754 152.444 90.8895 152.54 90.4072 152.348C90.1178 152.252 89.8284 152.444 89.539 152.444C89.0567 152.444 88.6708 152.348 88.285 152.155C87.7062 151.867 87.0309 151.674 86.4521 151.674C85.4875 151.674 84.5228 151.482 83.5582 151.193C82.4006 150.808 81.1465 150.712 79.8925 150.519C79.4101 150.327 78.7349 150.423 78.349 150.038C78.1561 149.846 77.8667 149.942 77.6738 149.942C77.5773 150.038 77.3844 150.038 77.2879 150.038C76.7091 149.653 76.1303 149.75 75.5515 149.653C74.4904 149.461 73.4293 148.883 72.2717 149.076C72.0788 149.172 71.8858 149.076 71.7894 148.98C71.0177 148.21 69.8601 148.691 69.0883 148.306C68.8954 148.21 68.7025 148.21 68.5096 148.306C68.2202 148.402 67.9308 148.402 67.7378 148.114C67.352 147.632 66.8696 147.536 66.1944 147.536C65.2297 147.536 64.3616 146.863 63.3969 147.151C63.011 146.959 62.7216 146.766 62.3358 146.67L61.3711 146.381C60.2135 145.996 59.2489 145.612 58.1878 145.612C58.0913 145.612 58.0913 145.612 57.9948 145.515C57.609 145.13 57.0302 145.227 56.5479 145.13C56.162 145.034 55.8726 145.034 55.4867 144.842C54.9079 144.36 54.0398 144.649 53.3645 143.976C53.268 143.879 53.0751 143.879 52.8822 143.879C52.3998 144.072 51.821 143.976 51.4352 143.591C51.3387 143.494 51.1458 143.302 51.0493 143.398C50.3741 143.783 49.8917 143.109 49.313 142.917C48.8306 142.725 48.3483 142.532 47.673 142.532C47.5766 142.532 47.3837 142.532 47.2872 142.436C46.7084 141.858 46.0331 141.858 45.3579 141.666C44.2003 141.377 42.6568 141.089 41.7887 140.222C41.6922 140.126 41.5957 140.126 41.4993 140.126C41.1134 140.319 40.824 140.222 40.4381 140.03C39.8594 139.741 39.2806 139.453 38.5088 139.453C38.4124 139.453 38.2194 139.356 38.123 139.26C37.7371 138.875 37.2548 138.875 36.8689 138.683C36.4831 138.298 36.0007 138.298 35.6149 138.105C35.3255 138.105 35.0361 137.913 34.7467 137.72C34.3608 137.432 33.975 137.335 33.4926 137.239C33.0103 137.143 32.528 136.758 32.1421 136.469C31.9492 136.469 31.8527 136.373 31.6598 136.373C31.081 136.373 30.6951 136.181 30.2128 135.892C29.827 135.603 29.3446 135.507 28.9588 135.315C27.9941 135.026 27.1259 134.641 26.1613 134.256L25.7754 133.967C25.486 133.582 25.1002 133.486 24.5214 133.486C24.4249 133.486 24.232 133.486 24.1355 133.39C23.2673 132.524 22.1097 132.524 21.338 131.754C20.7592 131.562 20.4698 131.177 19.9875 130.984C19.5052 130.792 19.0228 130.31 18.5405 130.118C16.9971 129.541 15.9359 128.29 14.489 127.52C14.1996 127.423 14.1031 127.135 13.8137 127.039C13.5243 126.75 13.1384 126.365 12.7526 126.172C12.2703 125.884 11.8844 125.403 11.4021 125.114C11.0162 124.921 10.7268 124.536 10.5339 124.248C10.148 123.67 9.76216 123.093 9.0869 122.804C8.41165 122.516 8.41165 121.457 7.73639 121.168C7.54346 121.072 7.35053 120.88 7.25406 120.783C6.67527 120.206 6.19294 119.436 5.90355 118.666C5.61415 117.993 5.22829 117.512 4.93889 116.838C4.55303 116.26 4.3601 115.587 4.07071 115.009L3.29898 113.566C2.91312 113.085 3.10605 112.411 3.00959 111.93C2.91312 111.353 2.81666 110.775 2.81666 110.198C2.81666 109.62 2.43079 109.139 2.52726 108.562C2.62372 107.984 2.43079 107.407 2.52726 106.83C2.62372 106.252 2.81666 105.771 2.62372 105.194C2.52726 105.097 2.62372 105.001 2.62372 104.905C3.10605 103.365 3.20252 101.826 3.68484 100.286C3.78131 100.19 3.78131 99.9009 3.78131 99.7084L4.07071 98.6499C3.78131 98.1687 4.3601 97.9762 4.45657 97.6875C4.6495 97.3988 4.45657 97.1101 4.6495 96.9177C4.93889 96.629 5.03536 96.4365 5.13182 96.1478C5.71062 94.5118 6.67527 93.0684 7.35053 91.5286C7.63992 90.855 7.92932 90.2776 8.31518 89.7964C8.50811 89.5077 8.70104 89.219 8.79751 88.9303C8.99044 88.3529 9.3763 88.0642 9.56923 87.5831C10.341 87.0057 10.7268 86.1396 11.1127 85.2735C11.4021 84.8886 11.595 84.4074 12.0773 84.1187C12.2703 84.1187 12.4632 83.9262 12.5597 83.7338C12.7526 82.9639 13.3314 82.4827 13.8137 82.0016C14.296 81.5204 14.6819 81.1355 15.0678 80.6543C16.0324 79.4033 17.0935 78.3447 18.1546 77.2862L20.5663 74.6879C21.1451 74.1105 21.8203 73.7255 22.2062 73.0519C23.7496 71.7046 25.2931 70.5498 26.8365 69.0101C27.5118 68.3365 28.2835 67.6629 29.0552 67.0855C29.827 66.5081 30.5987 66.0269 31.2739 65.3533C31.8527 64.7759 32.3351 64.3909 32.9138 64.006C33.3962 63.5248 33.975 63.1399 34.5538 62.755C35.229 62.2738 35.9043 61.6964 36.5795 61.3115C37.7371 60.6379 38.7018 59.868 39.7629 59.0981C40.9205 58.232 41.9816 57.2697 43.2356 56.6923L43.8144 56.4036C44.8756 55.2488 46.3225 54.7677 47.5766 53.8053C48.4448 53.1317 49.4094 52.5543 50.4705 51.9769C50.9529 51.6882 51.4352 51.4957 51.9175 51.1108C53.1716 50.0522 54.715 49.2824 56.162 48.5125C56.4514 48.4163 56.6443 48.32 56.8373 48.1276C57.5125 47.454 58.3807 47.2615 59.056 46.6841C60.8888 46.0105 62.3358 44.9519 63.9757 43.9896C65.905 42.8348 67.7378 41.8724 69.8601 41.0063C70.3424 40.8139 70.7283 40.5252 71.2106 40.044C71.4035 39.8516 71.5 39.5629 71.6929 39.3704L71.8858 39.2742C72.2717 39.8516 72.754 39.3704 73.1399 39.2742C73.5258 39.1779 74.0081 38.8892 74.3939 38.6968C74.7798 38.5043 75.2621 38.3118 75.648 38.0231H75.7445C76.4197 37.6382 76.9985 37.2533 77.6738 36.9646C78.9278 36.4834 80.0854 35.8098 81.243 35.2324C81.8218 34.9437 82.69 34.7512 83.1723 34.1738C84.0405 34.1738 84.7157 33.6926 85.391 33.4039L88.8637 31.9605C89.8284 31.5755 90.7931 30.9981 91.8542 30.6132C92.7224 30.3245 93.5906 30.132 94.4587 29.5546C94.8446 29.2659 95.3269 29.1697 95.7128 29.0735C96.0022 28.9772 96.2916 28.9772 96.4845 28.881C98.1244 28.0149 99.8608 27.3413 101.501 26.7639C102.369 26.4752 103.044 25.7053 104.009 25.8015C104.491 25.2242 105.263 25.6091 105.842 25.2242C106.517 24.8392 107.482 24.8392 108.06 24.1656C108.929 23.8769 109.797 23.6844 110.568 23.3957C112.208 23.0108 113.848 22.7221 115.199 21.856C115.488 21.6635 115.874 21.5673 116.26 21.4711C117.803 21.0861 119.25 20.4125 120.89 20.1238C122.144 19.4502 123.591 19.2577 124.942 18.6803C125.231 18.4879 125.424 18.4879 125.714 18.3916C127.064 18.1992 128.511 18.0067 129.669 17.4293C130.054 17.2368 130.44 17.3331 130.826 17.0444C131.116 16.8519 131.694 16.7557 132.08 16.6594C132.852 16.6594 133.527 16.467 134.202 16.1783C134.685 16.082 135.264 15.9858 135.746 15.7933C137.579 15.0235 139.605 14.9272 141.437 14.2536C141.727 14.2536 141.92 14.0611 142.209 14.0611C142.884 14.0611 143.56 13.7724 144.042 13.2913C144.138 13.195 144.331 13.2913 144.428 13.3875C144.428 13.4837 144.524 13.58 144.621 13.58C145.296 13.58 145.971 13.2913 146.55 13.0988C146.839 13.0026 147.129 12.8101 147.322 12.8101C147.997 12.8101 148.576 12.7139 149.155 12.5214C149.733 12.3289 150.505 12.4252 151.084 12.2327C151.856 11.944 152.627 11.8478 153.399 11.6553C154.171 11.4628 154.943 11.2704 155.714 11.1741C156.486 11.0779 157.161 10.5005 157.933 10.7892C158.512 10.5005 159.091 10.5005 159.766 10.5005C159.862 10.5005 159.959 10.4043 160.055 10.4043C160.538 10.0194 161.116 10.1156 161.695 10.0194C162.853 9.82689 163.914 9.82689 165.071 9.53819C166.229 9.24949 167.483 9.24949 168.544 8.76833C168.641 8.6721 168.834 8.6721 169.026 8.6721C169.798 8.6721 170.57 8.57586 171.342 8.3834C172.885 7.99846 174.429 7.70976 175.972 7.70976C176.358 7.70976 176.647 7.61353 176.937 7.32484C177.13 7.2286 177.226 7.2286 177.419 7.32484C177.998 7.42107 178.577 7.42107 179.059 7.2286C179.348 7.13237 179.638 7.13237 179.831 7.13237C181.085 7.13237 182.339 6.74744 183.593 6.74744C183.979 6.74744 184.461 6.6512 184.847 6.55497C186.004 6.26627 187.162 6.17004 188.416 6.17004C188.995 6.17004 189.67 6.07381 190.249 5.88134C191.021 5.59264 191.792 5.49641 192.564 5.59264C194.493 5.78511 196.423 5.11148 198.352 5.11148C198.641 5.11148 198.931 5.01524 199.22 4.82278C199.413 4.72655 199.606 4.82278 199.799 4.82278C200.378 4.82278 202.596 4.72655 202.982 4.63031C203.272 4.53408 203.368 4.43785 203.465 4.24538C203.561 4.05291 203.658 4.05291 203.754 4.24538C203.947 4.63031 204.236 4.63031 204.526 4.53408C205.297 4.43785 206.069 4.34161 206.841 4.34161C207.998 4.34161 209.156 4.34161 210.314 3.95668C211.857 3.95668 213.497 3.95668 215.137 3.66798C215.716 3.57175 216.391 3.66798 216.97 3.57175C217.645 3.47552 218.32 3.28305 218.995 3.57175H219.092C219.864 3.28305 220.539 3.47552 221.311 3.28305C222.082 3.09059 222.854 3.09059 223.529 3.28305C223.915 3.37929 224.398 3.18682 224.494 2.80189C224.59 2.51319 224.687 2.41696 224.88 2.70565C224.976 2.89812 225.073 2.99435 225.266 2.99435C225.748 2.99435 226.327 3.09059 226.809 2.89812C227.774 2.51319 228.642 2.80189 229.607 2.80189C229.993 2.80189 230.185 2.80189 230.185 2.41696C230.282 2.22449 230.378 2.22449 230.475 2.32072C230.668 2.80189 231.15 2.70565 231.536 2.70565H234.816C235.009 2.70565 235.202 2.60942 235.395 2.60942C235.78 2.41696 236.166 2.41696 236.649 2.41696H237.999C239.06 2.41696 240.121 2.12826 241.086 2.22449C241.954 2.32072 242.822 2.41696 243.691 2.12826C243.98 2.03203 244.366 2.12826 244.655 2.22449C244.945 2.32072 245.234 2.32072 245.523 2.03203C245.716 1.93579 245.813 2.03203 246.102 2.03203C246.778 2.03203 247.549 2.22449 248.224 1.93579C248.321 1.83956 248.514 1.83956 248.707 1.93579C249.671 2.12826 250.636 2.03203 251.601 2.03203C252.276 2.03203 252.951 1.93579 253.627 1.55086H253.819C254.012 1.74333 253.916 2.12826 254.302 1.93579H255.17C255.459 1.83956 255.749 1.83956 255.942 1.83956H256.135C256.81 2.03203 257.485 1.93579 258.16 1.93579C258.739 1.93579 259.511 2.22449 260.09 1.64709C260.09 1.55086 260.283 1.55086 260.379 1.55086C261.537 1.55086 262.791 1.93579 264.045 1.83956C264.238 1.74333 264.431 1.83956 264.624 1.83956C264.913 1.93579 265.106 1.93579 265.299 1.83956C265.685 1.64709 266.071 1.55086 266.456 1.55086C266.842 1.55086 267.228 1.74333 267.614 1.83956C268 1.93579 268.193 1.83956 268.579 1.83956C269.35 1.83956 270.122 1.74333 270.894 1.83956C271.955 1.93579 272.92 2.03203 273.981 2.03203C275.331 2.03203 276.682 2.12826 278.032 2.12826C278.515 2.12826 279.093 2.51319 279.576 2.03203C279.576 1.93579 279.865 1.93579 279.962 2.03203L281.602 2.32072C282.856 2.32072 284.013 2.32072 285.267 2.41696C286.232 2.51319 287.196 2.32072 288.258 2.51319C289.222 2.70565 290.283 2.89812 291.345 2.60942L291.73 2.51319C292.213 2.70565 292.599 2.80189 292.984 2.60942C293.467 2.41696 293.756 2.80189 294.238 2.70565C295.589 2.41696 296.94 3.18682 298.386 3.18682C298.676 3.18682 298.676 2.99435 298.772 2.80189C298.772 2.70565 298.869 2.41696 299.062 2.60942C299.544 3.09059 300.026 3.18682 300.702 3.18682C301.28 3.18682 301.956 3.37929 302.535 3.47552C302.727 3.57175 302.92 3.57175 303.113 3.47552C303.692 2.89812 304.367 3.37929 305.043 3.09059C305.332 3.28305 305.621 3.57175 305.911 3.57175C306.297 3.57175 306.683 3.18682 307.068 3.57175C307.358 3.86045 307.647 3.86045 307.937 3.86045C309.287 3.86045 310.541 4.24538 311.795 4.24538C312.567 4.24538 313.435 4.34161 314.11 4.53408C314.4 4.63031 314.786 4.63031 314.979 4.43785C315.171 4.24538 315.171 3.95668 315.364 4.34161C315.557 4.72655 316.04 4.91901 316.426 4.91901C317.39 4.91901 318.355 5.11148 319.223 5.20771C320.574 5.40017 321.924 5.59264 323.275 5.59264C323.66 5.78511 324.046 5.59264 324.336 5.68888C324.529 5.78511 324.625 5.59264 324.818 5.78511C325.204 6.17004 325.686 6.07381 326.265 6.07381C326.458 6.07381 326.651 5.97758 326.747 6.17004C327.037 6.3625 327.326 6.3625 327.615 6.45874C328.387 6.55497 329.255 6.26627 330.027 6.6512C330.027 6.6512 330.124 6.45874 330.22 6.45874C330.317 6.3625 330.413 6.26627 330.606 6.17004C330.895 6.74744 331.378 7.13237 332.149 7.13237C333.114 7.13237 333.982 7.2286 334.85 7.61353C335.333 7.806 335.815 7.806 336.201 7.5173C336.683 7.32484 337.166 7.2286 337.455 7.806C337.648 7.99846 337.937 7.99846 338.13 8.0947C338.42 8.0947 338.805 8.0947 338.902 8.19093C339.481 8.76833 340.156 8.57586 340.831 8.57586C341.121 8.57586 341.603 7.806 341.603 8.76833C341.603 8.86456 341.796 8.86456 341.892 8.96079C342.664 9.15326 343.436 9.15326 344.111 9.53819C344.304 9.53819 344.497 9.63443 344.593 9.53819C345.076 9.34572 345.462 9.53819 345.751 9.73066C346.137 9.92312 346.619 9.92312 347.005 9.92312C347.198 9.92312 347.294 9.82689 347.391 9.73066C347.584 9.53819 347.584 9.24949 347.777 9.63443C347.97 9.92312 348.066 10.1156 348.452 10.3081C349.031 10.5968 349.706 10.9817 350.478 10.7892C351.057 11.3666 351.925 11.0779 352.696 11.4628C353.082 11.6553 353.661 11.7516 354.143 11.5591C354.433 11.4628 354.722 11.4628 355.012 11.8478C355.397 12.3289 355.976 12.3289 356.652 12.1365C356.941 12.0402 357.23 11.944 357.52 11.944C357.906 11.944 357.809 12.4252 358.002 12.6176C358.195 12.7139 358.291 12.8101 358.388 12.9063H358.677C358.677 12.9063 358.774 12.8101 358.774 12.7139C358.677 12.5214 358.581 12.3289 358.581 12.1365C358.484 11.8478 358.388 11.5591 358.002 11.5591L357.23 11.2704C356.652 11.0779 354.722 10.5005 353.951 10.4043C353.758 10.3081 353.565 10.3081 353.372 10.4043C353.082 10.5968 352.889 10.4043 352.793 10.2118C352.6 9.92312 352.311 9.92312 352.118 10.0194C351.925 10.1156 351.732 10.2118 351.539 10.4043C351.442 10.5005 351.346 10.5005 351.346 10.4043C351.249 10.3081 351.249 10.3081 351.249 10.2118C351.249 9.73066 351.346 9.63443 350.96 9.63443C350.671 9.63443 350.381 9.53819 350.092 9.34572C349.513 8.96079 348.838 8.86456 348.163 8.76833C346.909 8.57586 345.558 8.28716 344.304 7.99846C343.532 7.806 342.664 7.61353 342.085 8.19093C341.989 8.28716 341.892 8.19093 341.892 8.0947C341.892 7.99846 341.892 7.90223 341.989 7.806C341.989 7.70976 342.085 7.70976 342.182 7.61353C342.182 7.61353 342.085 7.5173 341.989 7.5173C340.735 7.5173 339.481 6.84367 338.227 6.74744C337.841 6.55497 337.551 6.6512 337.166 6.74744C336.78 6.84367 336.394 6.84367 336.104 6.45874C336.008 6.17004 335.719 6.26627 335.622 6.45874C335.429 6.74744 335.333 6.74744 335.043 6.55497C334.368 6.17004 333.596 5.78511 332.728 5.78511L332.342 5.68888C331.764 5.40017 331.378 5.68888 331.088 5.97758C331.088 5.59264 330.799 5.30394 330.413 5.30394C329.931 5.30394 329.448 5.49641 329.062 5.11148C328.291 4.91901 327.519 4.72655 326.651 4.72655C326.265 4.72655 325.976 4.72655 325.59 4.63031C324.432 4.34161 323.275 3.95668 322.117 3.95668H320.863C320.477 3.95668 320.091 3.57175 319.802 3.76422C319.319 4.05291 319.03 3.57175 318.644 3.47552C317.872 3.28305 317.101 3.18682 316.329 3.18682C314.689 3.18682 313.049 2.70565 311.409 2.70565H311.216C310.541 2.32072 309.866 2.41696 309.191 2.41696C308.515 2.41696 307.937 2.22449 307.261 2.22449C306.2 2.22449 305.043 2.03203 303.981 2.03203C302.824 2.03203 302.824 1.83956 301.956 2.32072C301.859 2.41696 301.666 2.32072 301.473 2.32072C301.377 2.32072 301.377 2.22449 301.473 2.12826C301.57 2.03203 301.666 2.03203 301.763 1.83956C300.895 1.64709 300.026 1.93579 299.255 1.55086C299.255 1.55086 299.158 1.55086 299.158 1.64709C298.676 1.83956 298.097 1.64709 297.615 1.55086C296.457 1.35839 295.3 1.16593 294.142 1.16593C293.853 1.16593 293.563 1.16593 293.274 1.06969C292.406 0.780998 291.537 0.973461 290.669 0.973461C290.38 0.973461 290.09 1.06969 289.801 1.06969C286.618 0.396066 283.338 1.06969 280.155 0.396066C279.672 0.299834 279.19 0.492297 278.804 0.396066C277.839 0.203602 276.778 0.299834 275.814 0.299834C274.945 0.299834 274.077 0.203602 273.306 0.299834C272.437 0.396066 271.666 0.203602 270.894 0.107365C270.797 0.0111332 270.701 0.107365 270.604 0.107365C268.675 0.107365 266.746 0.492297 264.817 0.107365C264.527 0.396066 264.141 0.0111332 263.852 0.107365C263.273 0.299834 262.791 0.299834 262.212 0.203602C261.633 0.107365 261.151 0.203602 260.572 0.203602H260.379C259.993 0.203602 259.607 -0.18133 259.222 0.107365C258.836 0.396066 258.45 0.0111332 257.967 0.107365C257.292 0.203602 256.617 0.299834 255.942 0.299834C255.652 0.396066 255.266 0.299834 254.881 0.203602C254.205 0.203602 253.434 0.203602 252.758 0.107365C251.987 0.0111332 251.215 0.203602 250.443 0.396066C249.961 0.492297 249.671 0.492297 249.189 0.299834C248.9 0.203602 248.61 0.203602 248.321 0.203602C247.356 0.203602 246.488 0.299834 245.523 0.203602C244.848 0.107365 244.269 0.492297 243.594 0.492297C242.919 0.492297 242.244 0.107365 241.568 0.203602L240.7 0.492297C240.411 0.588529 240.121 0.396066 239.736 0.396066C239.06 0.588529 238.289 0.684766 237.613 0.396066C236.842 0.492297 236.07 0.492297 235.298 0.492297C235.009 0.492297 234.719 0.396066 234.43 0.396066C233.851 0.588529 233.369 0.588529 232.79 0.588529C232.308 0.588529 231.825 0.87723 231.343 0.396066C231.343 0.299834 231.054 0.396066 230.957 0.492297C230.668 0.588529 230.475 0.780998 230.282 0.973461C230.185 1.06969 229.993 1.06969 229.896 0.973461C229.51 0.588529 229.221 0.780998 228.931 0.780998C228.353 0.780998 227.774 0.780998 227.292 0.588529C226.616 0.780998 226.037 0.588529 225.459 0.588529C224.783 0.588529 224.012 0.588529 223.433 0.684766C222.951 0.780998 222.468 0.973461 221.986 0.87723C221.6 0.780998 221.021 1.26216 220.635 0.87723C220.539 0.780998 220.25 0.87723 220.25 0.973461C219.96 1.55086 219.671 1.26216 219.285 1.06969C219.092 0.973461 218.803 0.87723 218.513 0.87723C217.838 0.87723 217.066 0.87723 216.391 0.973461C215.909 1.06969 215.523 1.16593 215.137 1.16593C213.979 1.16593 212.918 1.35839 211.857 1.35839C211.761 1.35839 211.568 1.45463 211.471 1.55086C211.278 1.74333 210.989 1.74333 210.699 1.64709C210.314 1.55086 209.831 1.45463 209.349 1.64709C209.156 1.74333 208.963 1.74333 208.77 1.64709C208.384 1.45463 207.902 1.55086 207.516 1.64709C207.227 1.74333 206.937 1.83956 206.648 1.83956C205.394 1.83956 204.236 1.93579 203.079 2.12826C200.86 2.51319 198.641 2.22449 196.519 2.80189H195.94H195.265C193.722 3.18682 192.178 3.28305 190.635 3.47552C189.863 3.57175 188.995 3.57175 188.127 3.76422C187.355 3.95668 186.487 3.86045 185.715 4.05291C184.847 4.24538 183.979 4.34161 183.014 4.34161C182.917 4.34161 182.725 4.34161 182.628 4.43785C181.181 4.72655 179.734 4.82278 178.287 5.01524C176.647 5.20771 175.104 5.68888 173.464 5.68888C172.113 6.07381 170.666 5.88134 169.412 6.6512C169.412 6.74744 169.316 6.74744 169.316 6.6512C168.448 6.55497 167.676 6.84367 166.808 6.84367C166.422 6.84367 166.036 6.9399 165.554 7.03614C164.493 7.2286 163.431 7.5173 162.37 7.70976C161.02 7.99846 159.669 7.99846 158.222 8.28716C156.582 8.57586 155.039 9.05702 153.303 9.05702C153.206 9.05702 153.013 9.15326 152.82 9.15326C151.373 9.73066 149.733 9.92312 148.19 10.3081C147.804 10.4043 147.418 10.5968 146.936 10.5968C146.261 10.5968 145.489 10.693 144.814 10.9817C144.621 11.0779 144.331 11.1741 144.042 11.1741C142.691 11.1741 141.341 11.8478 139.894 11.8478C138.833 12.3289 137.289 11.8478 136.421 12.7139C136.325 12.8101 136.035 12.8101 135.842 12.8101C135.457 12.8101 135.071 12.9063 134.781 13.0026C134.106 13.195 133.527 13.4837 132.755 13.4837C132.37 13.4837 131.887 13.7724 131.501 13.9649C131.309 14.1574 131.212 14.1574 131.019 14.0611C130.44 13.9649 129.862 13.8687 129.379 14.3498C129.283 14.4461 129.186 14.5423 128.993 14.5423C128.415 14.2536 127.836 14.4461 127.353 14.6385C127.064 14.7348 126.678 14.9272 126.389 14.831C125.81 14.6385 125.328 15.1197 124.749 15.1197C124.17 15.1197 124.074 15.6971 123.688 15.9858C123.302 15.3122 122.723 15.6971 122.144 15.8896C121.855 15.9858 121.566 16.1783 121.276 16.082C120.697 15.8896 120.311 16.1783 119.829 16.3707C119.54 16.467 119.347 16.5632 119.057 16.5632C117.996 16.5632 116.935 16.8519 115.971 17.3331C115.585 17.5255 115.102 17.4293 114.716 17.5255C113.655 17.8142 112.594 18.1992 111.533 18.3916C110.472 18.5841 109.507 18.969 108.35 19.1615C107.771 19.2577 106.999 19.4502 106.999 20.22C106.999 20.3163 106.903 20.3163 106.903 20.3163C106.806 20.4125 106.71 20.4125 106.613 20.3163C106.517 20.0276 106.131 19.8351 105.842 20.0276C105.07 20.5087 103.912 20.22 103.044 21.0861C102.948 21.1824 102.755 21.1824 102.755 21.0861C102.176 20.7974 101.79 21.0861 101.211 21.2786C100.825 21.3748 100.247 21.6635 99.7643 21.7598C98.5103 22.0485 97.2562 22.4334 96.0022 22.8183C95.8093 22.8183 95.6163 22.9146 95.5199 23.107C95.2305 23.6844 94.6517 23.492 94.1693 23.492C93.687 23.492 93.2047 23.6844 92.9153 23.9731C92.6259 24.2618 92.3365 24.3581 92.0471 24.3581C91.4683 24.3581 90.7931 24.3581 90.2143 24.5505C89.4425 24.8392 88.5744 25.1279 87.8026 25.5129C87.6097 25.5129 87.5132 25.7053 87.6097 25.8978C87.7062 26.1865 87.5132 26.3789 87.4168 26.4752L87.1274 26.2827C86.9344 25.8015 86.9344 25.8015 86.4521 25.994L85.7769 26.2827C84.5228 26.3789 83.3652 26.7639 82.2076 27.1488C81.6288 27.3413 81.0501 27.5337 80.5677 27.9187C80.2783 28.1111 79.796 28.1111 79.6031 28.3998C79.2172 28.6885 78.9278 28.3998 78.6384 28.4961C78.1561 28.6885 77.5773 28.7848 77.3844 29.3622C77.8667 29.3622 78.349 29.2659 78.349 30.0358C78.349 30.2283 78.542 30.132 78.6384 29.9396C78.8314 29.7471 79.0243 29.7471 79.2172 29.8433H79.6031C80.0854 29.5546 80.5677 29.3622 81.0501 29.2659C81.4359 28.7848 82.0147 28.9772 82.497 28.7848C82.69 28.6885 82.8829 28.5923 83.0758 28.3998C83.3652 28.1111 83.6546 28.4961 83.944 28.3998L87.0309 27.3413C87.3203 27.1488 87.5132 26.8601 87.4168 26.5714H87.8991C88.5744 26.9563 89.0567 26.8601 89.6355 26.4752C90.2143 26.0903 90.986 26.0903 91.5648 25.5129C91.6612 25.4166 91.9506 25.4166 92.0471 25.4166C92.7224 25.7053 93.3012 25.4166 93.9764 25.1279C94.6517 24.8392 95.134 24.2618 96.0022 24.5505C96.2916 24.6468 96.2916 23.9731 96.6774 24.1656C96.7739 24.0694 96.8704 23.9731 96.8704 23.7807C96.9668 23.6844 96.8704 23.5882 96.9668 23.492C96.9668 23.2033 97.2562 23.0108 97.4492 23.2995C98.028 23.7807 98.7032 23.8769 99.3785 23.5882C99.8608 23.3957 100.44 23.107 101.018 23.107C101.694 23.107 102.369 22.7221 102.851 22.3372C103.334 21.9522 103.623 21.856 104.105 22.0485C104.491 22.2409 104.684 21.9522 104.781 21.5673C104.877 21.2786 105.07 21.3748 105.166 21.5673C105.359 21.7598 105.552 21.7598 105.745 21.5673C106.035 21.2786 106.324 21.3748 106.613 21.4711L106.806 21.6635C106.806 21.7598 106.71 21.856 106.71 21.856C105.938 22.1447 105.263 22.4334 104.491 22.6259C103.719 22.8183 103.141 23.2033 102.272 23.492C101.597 23.6844 100.825 24.1656 100.15 24.3581C98.5103 24.8392 96.9668 25.5129 95.5199 26.1865C94.2658 26.7639 93.0118 27.0526 91.8542 27.63C91.0825 28.0149 90.3107 28.1111 89.6355 28.7848C89.539 28.881 89.4425 28.9772 89.2496 28.881C88.9602 28.7848 88.7673 28.881 88.5744 29.0735C87.3203 29.7471 85.9698 29.7471 84.9087 30.8057C84.8122 30.9019 84.6193 30.9019 84.4263 30.9019C83.8475 30.9019 83.3652 31.2868 82.8829 31.4793C82.3041 31.6718 81.7253 31.8642 81.243 32.2492C80.6642 32.7303 79.8925 32.8266 79.1207 33.2115C78.0596 33.7889 76.902 34.1738 75.8409 34.8474C75.0692 35.3286 74.201 35.6173 73.4293 36.0022C71.5 36.9646 69.3777 37.7344 67.5449 38.9855C67.2555 39.1779 66.9661 39.2742 66.7732 39.4666C66.3873 39.8516 66.0979 40.044 65.6156 40.044C65.4227 40.044 65.1333 40.2365 64.9403 40.3327C64.0722 40.7177 63.1075 41.1988 62.2393 41.68C61.3711 42.1611 60.6959 42.6423 59.9241 43.0272C59.056 43.4122 58.2842 43.9896 57.5125 44.4707C55.3903 45.818 53.1716 46.9728 51.0493 48.2238C49.8917 48.8974 48.9271 49.6673 47.866 50.2447C46.6119 50.9183 45.5508 51.6882 44.3932 52.3618C42.3674 53.5166 40.6311 54.9601 38.7018 56.2111C37.0619 57.2697 35.5184 58.5207 33.975 59.5793L32.3351 61.0228C31.7563 61.4077 31.081 61.8889 30.5987 62.37C30.0199 62.755 29.5376 63.2362 28.9588 63.7173C27.1259 65.257 25.486 66.7968 23.5567 68.0478C23.2673 68.2403 23.0744 68.6252 22.6885 68.9139C21.1451 70.0687 19.891 71.5122 18.444 72.7632C17.3829 73.7255 16.5147 74.7841 15.5501 75.8427C14.1996 77.2861 12.8491 78.7296 11.4985 80.2694C11.4985 80.2694 11.4021 80.3656 11.4021 80.4618C10.148 82.0978 8.79751 83.6375 7.73639 85.4659C7.44699 85.9471 6.96467 86.4283 6.96467 87.1019C6.8682 87.1981 6.77174 87.3906 6.5788 87.5831C6.48234 87.7755 6.19294 87.968 6.09648 88.1605C5.61415 89.219 5.03536 90.1814 4.3601 91.1437C3.78131 92.0098 3.29898 93.0683 2.91312 94.0307C2.33433 95.5704 1.65907 97.2064 1.17674 98.7461C1.08028 99.0348 0.983814 99.2272 1.08028 99.5159C1.17674 99.7084 1.17674 99.9009 1.08028 100.093C0.694418 100.863 0.597953 101.729 0.405022 102.499C0.212091 103.365 -0.0773046 104.231 0.019161 105.097C0.115626 105.675 0.115626 106.156 0.115626 106.733C-0.0773046 107.888 0.115626 108.947 0.115626 110.005C0.115626 110.102 0.212091 110.198 0.212091 110.294C0.212091 110.968 0.501487 111.641 0.694418 112.315C0.887349 112.892 0.887349 113.758 1.46614 114.24C1.46614 115.202 1.94847 116.068 2.62372 116.742C2.72019 116.838 2.91312 117.127 2.81666 117.223C2.62372 117.704 2.91312 117.896 3.10605 118.185C3.39545 118.378 3.58838 118.666 3.68484 118.955C4.26364 119.917 4.84243 120.783 5.42122 121.65C6.28941 122.997 7.35053 124.152 8.70104 125.018C8.99044 125.306 9.3763 125.595 9.56923 125.884C10.148 126.75 10.9197 127.327 11.7879 127.808C12.1738 127.905 12.4632 128.193 12.7526 128.386C14.0066 129.637 15.5501 130.503 17.0935 131.465L17.8652 131.946C18.1546 132.331 18.444 132.428 18.9264 132.62C19.2158 132.716 19.6016 132.813 19.7946 133.101C20.1804 133.679 20.5663 133.775 21.0486 134.064C21.6274 134.256 22.2062 134.448 22.6885 134.737C23.9426 135.507 25.2931 136.084 26.6436 136.854C27.1259 137.143 27.6083 137.335 28.0906 137.432C28.5729 137.528 29.0552 137.817 29.4411 138.105C29.9234 138.394 30.5022 138.49 30.9845 138.779C31.7563 139.26 32.6245 139.549 33.4926 139.741C34.0714 139.838 34.6502 140.03 35.1325 140.319C36.0007 140.8 36.8689 141.377 37.8336 141.377C38.0265 141.377 38.3159 141.377 38.4124 141.473C38.8947 141.955 39.6664 142.051 40.3417 142.243C40.9205 142.436 41.5957 142.725 42.1745 143.013C43.1392 143.494 44.1038 143.783 45.0685 144.072C46.5155 144.457 47.866 144.745 49.2165 145.515C49.4094 145.708 49.6988 145.612 49.9882 145.612C50.0847 145.612 50.2776 145.515 50.3741 145.612C50.6635 145.9 51.0493 145.996 51.3387 145.996C51.821 145.996 52.2069 146.093 52.4963 146.381C52.6892 146.478 52.8822 146.574 53.0751 146.574L55.8726 147.344C57.1266 147.729 58.4772 147.921 59.7312 148.402C59.8277 148.498 59.9241 148.402 60.0206 148.498C60.5029 148.595 60.9853 148.595 61.3711 148.787C62.5287 149.076 63.5898 149.461 64.7474 149.461C64.9403 149.461 65.1333 149.557 65.3262 149.557L67.159 150.134C67.7378 150.231 68.3166 150.231 68.799 150.712C68.8954 150.808 69.0883 150.904 69.1848 150.808C69.6671 150.616 70.053 150.808 70.5353 151.097C70.8247 151.289 71.2106 151.289 71.5965 151.289C72.754 151.289 74.0081 151.385 74.9727 152.155C75.0692 152.155 75.1657 152.155 75.2621 152.252C76.2268 152.444 77.1914 152.252 77.9632 152.829H78.1561C79.3137 152.829 80.3748 153.214 81.5324 153.214C81.8218 153.214 82.1112 153.31 82.3041 153.31C83.2688 153.31 84.1369 153.888 85.1016 153.888C85.2945 153.888 85.5839 154.08 85.7769 154.176C85.9698 154.369 86.2592 154.369 86.5486 154.272C86.7415 154.176 87.0309 154.272 87.2238 154.369C87.7062 154.561 88.1885 154.85 88.7673 154.561C88.8637 154.465 89.0567 154.561 89.2496 154.561C90.986 154.946 92.8188 155.427 94.7481 155.427C95.2305 155.523 95.9057 155.523 96.388 155.812C96.6774 156.005 97.0633 156.005 97.4492 155.908C98.6068 155.62 99.8608 156.101 101.018 156.486C101.211 156.486 101.308 156.582 101.501 156.582C102.176 156.39 102.851 156.678 103.43 156.775C104.202 156.871 104.973 157.159 105.745 157.159C106.517 157.159 107.385 157.159 108.06 157.352C108.929 157.448 109.7 157.641 110.568 157.641C111.147 157.641 111.63 158.026 112.208 157.929C112.787 157.833 113.366 158.218 113.945 158.026C114.524 157.833 115.006 158.41 115.488 158.507C116.646 158.507 117.803 158.892 118.961 158.892H119.54C119.926 159.084 120.408 159.084 120.794 159.084C121.662 159.084 122.434 159.084 123.302 159.277C123.881 159.373 124.363 159.469 124.942 159.469C125.521 159.469 126.099 159.469 126.678 159.565C127.546 159.758 128.318 159.758 129.186 159.95C129.958 160.143 130.826 160.143 131.598 160.143H131.984C132.852 160.528 133.817 160.431 134.685 160.624C135.071 160.72 135.457 160.624 135.746 160.624C136.325 160.624 136.807 160.528 137.289 160.816C137.579 160.913 137.868 161.009 138.158 160.913C138.447 160.72 138.64 160.72 138.929 160.913C139.219 161.009 139.412 161.105 139.701 161.009C140.28 160.816 140.762 160.913 141.341 161.201C141.437 161.297 141.63 161.297 141.727 161.201C142.691 160.913 143.656 161.49 144.524 161.105C144.621 161.105 144.717 161.105 144.814 161.201C145.489 161.586 146.164 161.682 146.936 161.394C147.225 161.297 147.515 161.49 147.804 161.49C148.576 161.682 149.348 161.875 150.119 161.875C150.698 161.875 151.277 162.164 151.856 161.971C152.434 161.779 152.917 161.971 153.496 161.971C154.171 161.971 154.846 161.875 155.521 162.164C155.907 162.356 156.293 162.26 156.679 162.26C157.836 162.26 158.994 162.356 160.152 162.356C160.634 162.356 161.02 162.548 161.406 162.548C161.695 162.548 161.984 162.356 162.274 162.452C162.66 162.548 163.046 162.548 163.335 162.548C163.914 162.548 164.589 162.645 165.071 162.548C165.554 162.452 165.94 162.452 166.325 162.645C166.711 162.837 167.001 162.741 167.387 162.645C167.965 162.549 168.448 162.356 169.026 162.548C169.605 162.164 170.184 162.645 170.666 162.645C171.438 162.645 172.21 163.03 172.982 162.741C173.56 162.548 174.236 162.548 174.814 162.837C175.007 162.933 175.297 162.933 175.49 162.933H177.226C177.708 162.933 178.384 163.126 178.769 162.548C178.769 162.452 178.962 162.548 178.962 162.548C179.155 162.645 179.348 162.933 179.541 162.837C180.313 162.645 181.278 163.415 181.953 162.741C182.049 162.645 182.242 162.837 182.435 162.837C182.725 162.837 183.014 162.933 183.303 162.933H187.065C187.741 162.933 188.32 162.933 188.995 162.837C189.574 162.452 190.249 162.837 190.828 162.933C192.275 163.126 193.722 162.933 195.169 162.933C196.712 162.933 198.255 162.741 199.702 162.741C199.895 162.741 200.088 162.645 200.185 162.741C201.053 163.03 201.921 162.645 202.789 162.548C203.079 162.452 203.272 162.356 203.561 162.452C203.85 162.548 204.14 162.548 204.429 162.548C205.394 162.548 206.359 162.645 207.227 162.452C207.998 162.26 208.674 162.356 209.445 162.356C210.217 162.356 210.989 162.26 211.761 161.971H212.339C214.076 161.971 215.619 161.682 217.356 161.682C218.031 161.586 218.706 161.297 219.478 161.586C219.574 161.586 219.767 161.586 219.864 161.49C220.153 161.201 220.442 161.201 220.732 161.297C221.311 161.49 221.889 161.394 222.468 161.201C222.854 161.105 223.24 161.009 223.722 161.105C223.915 161.201 224.108 161.201 224.301 161.201C224.88 161.201 225.459 160.913 225.941 160.72C226.327 160.528 226.52 160.528 226.809 160.816C227.195 161.201 227.774 161.105 228.16 160.913C228.546 160.72 228.931 160.72 229.414 160.72C230.861 160.72 232.308 160.335 233.755 160.335H234.43C234.816 160.143 235.298 160.046 235.78 160.239C235.877 160.239 236.166 160.239 236.263 160.143C236.745 159.662 237.324 159.854 237.903 159.854C238.674 159.854 239.446 159.854 240.218 159.758C242.147 159.469 243.98 159.18 245.909 158.988C247.453 158.795 248.996 158.699 250.443 158.41C250.926 158.314 251.504 158.314 251.987 158.218L253.144 157.929C253.53 157.833 253.819 157.737 254.205 157.833C254.977 158.026 255.652 157.929 256.231 157.352C256.521 157.063 256.713 157.159 257.003 157.159C257.389 157.159 257.775 157.352 258.064 157.063C258.257 156.967 258.353 156.775 258.546 156.871C259.125 157.159 259.704 157.063 260.283 156.967L262.887 156.39C263.177 156.39 263.562 156.197 263.948 156.197C265.395 156.197 266.746 155.62 268.193 155.523C268.965 155.042 269.833 155.139 270.604 155.139C270.99 155.139 271.376 155.042 271.666 154.946C272.727 154.561 273.691 154.369 274.752 154.176C276.199 153.888 277.55 153.503 278.997 153.31C279.865 153.214 280.733 152.925 281.602 152.829C282.277 152.733 283.048 152.637 283.627 152.155C283.82 152.059 284.013 151.963 284.206 151.963C284.592 151.963 284.978 151.963 285.364 151.867L287.582 151.289C289.608 150.808 291.537 150.616 293.467 149.846C293.949 149.653 294.528 149.461 295.01 149.365C296.361 149.076 297.615 148.402 298.965 148.402C299.062 148.402 299.158 148.306 299.255 148.306C299.93 147.825 300.798 147.825 301.57 147.536C302.438 147.247 303.21 146.863 304.174 146.863C304.56 146.863 304.85 146.766 305.236 146.574C307.068 145.612 309.287 145.227 311.313 144.553C312.856 144.072 314.4 143.687 315.847 143.013C317.197 142.725 318.355 141.762 319.705 141.762C319.898 141.762 320.091 141.666 320.284 141.666C321.345 141.185 322.406 140.704 323.371 140.415C323.95 140.222 324.625 140.03 325.107 139.741C325.493 139.645 325.783 139.453 326.169 139.453C326.361 139.356 326.651 139.356 326.844 139.164C328.098 138.394 329.738 138.394 330.895 137.528C331.667 137.528 332.246 137.143 332.825 136.854C333.5 136.566 334.079 136.662 334.657 136.084C334.754 135.988 334.947 135.988 335.14 135.988C335.526 135.988 335.815 135.796 336.104 135.7C336.587 135.411 336.973 135.218 337.455 135.026C338.805 134.448 340.156 134.064 341.507 133.486C343.629 132.62 345.751 131.946 347.777 130.792C348.645 130.31 349.513 129.829 350.478 129.444C351.346 129.059 352.118 128.771 352.889 128.386L354.143 127.808C355.88 127.039 357.713 126.172 359.353 125.306C360.124 124.921 360.992 124.44 361.668 123.959C362.439 123.478 363.211 123.093 363.983 122.708C364.562 122.419 365.044 122.131 365.526 121.842C366.298 121.361 367.263 120.976 368.034 120.398C368.42 120.11 368.613 119.629 369.192 119.629C369.771 119.629 369.867 119.051 370.35 118.955C370.928 118.859 371.411 118.474 371.893 118.185C372.086 117.993 371.99 117.608 372.279 117.511C373.147 117.415 373.726 116.742 374.498 116.357C375.269 115.972 375.848 115.009 376.716 115.009C376.813 115.009 376.909 114.913 377.006 114.817C377.585 114.24 378.163 113.951 378.742 113.373C378.839 113.277 379.032 113.085 379.128 113.085C379.803 113.085 379.996 112.604 380.478 112.315C381.057 111.738 381.733 111.353 382.408 110.775C382.987 110.294 383.662 110.005 384.144 109.428C385.012 109.235 385.495 108.466 386.073 107.888C386.363 107.696 386.749 107.503 386.942 107.311C387.135 107.215 387.231 107.022 387.231 106.926C387.231 106.541 387.424 106.348 387.713 106.252C388.003 106.06 388.003 105.675 388.389 105.579C389.45 105.29 390.125 104.52 390.897 103.846C391.765 103.077 392.344 102.114 393.308 101.441C393.598 101.248 393.791 101.056 393.984 100.863C394.659 100.19 395.045 99.3235 395.913 99.0348C396.202 98.9385 395.913 98.5536 395.816 98.3612C395.624 98.3612 395.624 98.3611 395.72 98.2649C395.238 98.1687 394.37 98.0725 393.984 98.1687ZM414.048 61.6002C414.241 60.9266 413.663 60.4454 413.663 59.7718C413.663 59.6755 413.566 59.5793 413.566 59.4831C413.47 59.2906 413.663 59.1944 413.759 59.1944C413.952 59.0019 414.048 58.8094 413.952 58.617C413.277 57.3659 413.759 55.73 413.18 54.3827V53.9016L412.601 51.207C412.409 50.2447 411.926 49.4748 411.54 48.6087C411.444 48.4163 411.347 48.1276 411.347 47.8389C411.347 47.069 411.058 46.3954 410.672 45.6255C410.286 44.9519 409.997 44.2783 409.418 43.7009L409.129 43.1235L408.164 41.3913C407.875 40.7177 407.296 40.2365 406.91 39.6591L406.331 38.8892C405.463 37.7344 404.595 36.3872 403.437 35.4248C402.762 34.8474 402.183 34.3663 401.701 33.6926C401.411 33.3077 400.929 33.019 400.64 32.5379C400.35 32.0567 399.868 31.8642 399.482 31.5755C399 31.1906 398.518 30.9019 398.132 30.517C396.781 29.1697 395.238 28.0149 393.501 27.1488C393.308 27.0526 393.115 26.7639 392.923 26.6676C392.537 26.4752 392.344 25.8015 391.861 25.7053C391.186 25.7053 391.09 25.0317 390.607 24.8392C390.029 24.6468 389.45 24.4543 388.967 23.9731C388.775 23.7807 388.485 23.7807 388.292 23.9731C388.099 24.0694 387.906 24.0694 387.617 24.1656C387.713 23.9731 387.906 23.7807 387.906 23.5882C387.906 23.3957 387.617 23.2995 387.52 23.107L386.942 22.8183C386.459 22.7221 386.073 22.4334 385.591 22.1447C385.109 21.856 384.53 21.6635 384.048 21.3748C383.565 21.6635 383.372 21.3748 383.083 20.9899C382.794 20.605 382.504 20.5087 382.215 20.4125C381.347 20.1238 380.575 19.8351 379.996 19.2577C379.9 19.0652 379.61 19.0652 379.417 18.969C377.97 18.5841 376.62 17.8142 375.269 17.2368C374.787 17.0444 374.305 16.8519 373.822 16.8519C373.629 16.8519 373.437 16.7557 373.34 16.7557C372.665 16.082 371.604 15.8896 370.832 15.5046C370.446 15.3122 370.157 15.3122 369.867 15.5046C369.674 15.6009 369.481 15.6971 369.289 15.6971C369.096 15.5046 369.192 14.9272 368.613 14.9272C368.517 14.9272 368.42 14.9272 368.324 14.831C367.745 14.6385 367.166 14.4461 366.587 14.1574L366.395 14.2536C366.105 14.7348 365.912 14.4461 365.816 14.2536C365.237 13.0988 364.272 12.9063 363.115 13.195C362.922 13.2913 362.729 13.2913 362.536 13.195C362.343 13.0026 362.054 12.9063 361.764 12.7139C361.475 12.5214 361.282 12.6176 361.089 12.8101C360.992 12.9063 360.896 13.0026 360.8 13.0026C360.607 12.9063 360.703 12.7139 360.8 12.5214C360.8 12.4252 360.992 12.2327 360.703 12.1365C360.317 12.0402 359.835 11.7516 359.353 11.944C359.256 11.944 359.256 12.0402 359.353 12.1365C359.546 12.3289 359.642 12.3289 359.642 12.6176C359.546 12.8101 359.353 13.0026 359.546 13.195C359.642 13.2913 359.931 13.3875 360.124 13.3875C360.607 13.58 361.089 13.8687 361.571 13.58C361.764 13.4837 361.861 13.58 361.957 13.7724C362.15 14.2536 362.632 14.2536 363.115 14.2536C363.404 14.2536 363.79 14.1574 363.983 14.1574C364.272 14.2536 364.465 14.6385 364.658 14.831C364.755 14.9272 364.851 15.1197 365.044 15.1197C365.719 15.1197 366.395 15.6009 367.166 15.5046C367.359 15.4084 367.456 15.4084 367.649 15.6971C367.842 15.9858 368.131 16.1783 368.517 16.1783C368.806 16.1783 369.096 16.2745 369.289 16.467C369.578 16.7557 369.867 16.7557 370.253 16.8519C370.736 16.8519 371.314 17.0444 371.7 17.3331C372.086 17.6218 372.568 17.718 372.954 17.8142C373.437 17.8142 373.822 18.0067 374.112 18.2954C374.401 18.5841 374.594 18.5841 374.884 18.7765C375.462 18.969 376.041 19.0652 376.523 19.4502C376.909 19.7389 377.488 19.9313 378.067 20.1238C378.356 20.22 378.549 20.4125 378.935 20.4125C379.128 20.4125 379.417 20.4125 379.61 20.605C379.9 20.8937 380.093 21.0861 380.478 21.1824C380.768 21.2786 381.057 21.2786 381.154 21.4711C381.54 21.856 381.926 21.7598 382.311 21.7598C382.504 21.7598 382.697 21.6635 382.794 21.6635C382.987 21.7598 382.987 22.0485 382.987 22.2409C383.083 22.5296 383.18 22.6259 383.469 22.8183C384.048 23.2033 384.819 23.107 385.205 23.6844C385.977 23.8769 386.556 24.5505 387.424 24.3581C387.424 24.5505 387.424 24.8392 387.617 24.9355C388.003 25.1279 388.485 25.2242 388.871 25.5129C389.257 25.8015 389.45 26.1865 389.836 26.4752L390.511 26.7639C391.186 27.0526 391.668 27.3413 392.151 27.7262C393.308 28.6885 394.466 29.4584 395.624 30.3245C396.299 30.8057 396.878 31.2868 397.456 31.768C398.807 32.9228 400.061 34.1738 401.315 35.4248C401.701 35.8098 402.087 36.1947 402.569 36.5796C402.955 36.8683 403.437 37.2533 403.63 37.7344C404.016 38.6968 404.884 39.2742 405.463 39.9478C405.656 40.3327 406.235 40.3327 406.235 40.9101C406.235 41.3913 406.91 41.5837 406.91 42.0649C406.91 42.3536 407.103 42.6423 407.392 42.931C407.682 43.2197 407.778 43.4122 407.971 43.7971C408.164 44.182 408.261 44.567 408.453 44.9519C408.839 45.6255 409.322 46.2992 409.611 47.069C409.804 47.6464 409.997 48.1276 410.286 48.6087C410.383 48.8012 410.479 48.8974 410.479 49.0899C410.479 50.2447 411.444 51.207 411.347 52.4581L411.444 52.5543C412.023 53.1317 411.733 53.9978 411.926 54.6714C412.023 55.0564 411.926 55.5375 412.119 55.9224C412.409 56.5961 412.409 57.2697 412.216 57.9433C412.119 58.3283 412.119 58.617 412.409 58.9057C412.601 59.0981 412.505 59.3868 412.409 59.6755C412.312 60.0605 412.119 60.5416 412.312 61.0228C412.601 61.6964 412.216 62.3701 412.216 63.0437C412.216 63.3324 412.023 63.6211 412.119 64.006C412.216 64.4872 411.83 65.0646 412.119 65.5457C412.119 65.642 412.119 65.7382 412.023 65.8344C411.637 66.2194 411.83 66.7005 411.83 67.1817C411.83 67.5666 411.926 67.8553 411.444 68.3365C411.251 68.529 411.251 68.9139 411.154 69.2988C410.865 70.2611 411.058 71.2235 410.962 72.0896C410.865 72.282 410.865 72.4745 410.672 72.5707C410.093 72.8594 409.9 73.3406 409.804 73.8218C409.804 74.4954 409.611 75.0728 409.225 75.554C408.839 76.0351 408.743 76.6125 408.646 77.1899C408.55 77.5749 408.453 77.8635 408.261 78.056C408.068 78.2485 407.971 78.441 407.875 78.5372C407.489 79.2108 407.296 79.9807 406.814 80.5581C406.331 81.1355 406.235 82.0016 405.656 82.4827C405.656 82.9639 405.463 83.1564 405.077 83.5413C404.884 83.7338 404.691 84.1187 404.788 84.4074C404.884 84.6961 404.884 84.7923 404.595 84.8886C404.402 84.8886 404.209 84.9848 404.209 85.081C403.92 85.466 403.63 85.9471 403.63 86.332C403.63 86.717 403.437 86.9094 403.148 87.0057C402.569 87.1981 402.183 87.6793 401.894 88.2567C401.797 88.4492 401.701 88.6416 401.604 88.7379C400.736 89.604 399.965 90.6625 399.386 91.8173C399.289 92.0098 399.096 92.2985 398.807 92.3947C398.421 92.4909 398.228 92.8759 397.939 93.2608C397.649 93.6457 397.456 94.1269 397.167 94.3194C396.395 94.8005 396.009 95.5704 395.624 96.3403C395.527 96.5327 395.334 96.7252 395.141 96.8214L394.466 97.2064C394.466 97.4951 394.659 97.5913 394.852 97.6875C395.141 97.88 395.527 97.9762 395.72 98.1687C396.106 97.9762 397.071 97.5913 397.36 97.3026C397.746 96.9177 398.228 96.629 398.421 95.9553V95.6666C398.421 95.3779 398.518 95.3779 398.807 95.3779C399.096 95.3779 399.289 95.1855 399.386 94.8968C400.157 94.0307 400.833 93.1646 401.508 92.2985L402.473 91.0475C403.051 90.2776 403.63 89.5077 404.113 88.7379C405.077 87.1981 405.849 85.466 407.199 84.1187L407.296 84.0225C407.489 83.1564 407.971 82.4827 408.55 81.8091C408.55 81.8091 408.646 81.6166 408.55 81.5204C408.164 81.1355 408.453 81.0392 408.743 81.0392C408.839 81.0392 408.936 80.8468 409.032 80.7505L410.19 78.1522C410.576 77.3824 410.865 76.4201 411.154 75.554C411.347 74.9766 411.637 74.3029 411.83 73.6293C412.023 72.9557 412.216 72.282 412.505 71.6084C412.794 70.9348 412.698 70.2612 413.084 69.6838V69.2026C413.084 68.8177 413.084 68.3365 413.277 67.8553C413.47 67.4704 413.373 67.0855 413.47 66.7005C413.759 65.5457 413.759 64.4872 413.759 63.4286C413.759 63.3324 413.759 63.3324 413.856 63.2362C414.338 62.755 413.856 62.1776 414.048 61.6002ZM76.1303 30.0358C75.9374 30.4207 75.8409 29.9396 75.7445 29.8433C75.4551 29.5546 75.1657 29.7471 74.8763 29.8433C74.5869 30.0358 74.4904 30.3245 74.1046 30.3245C73.5258 30.3245 73.2364 30.517 72.947 30.9981C72.8505 31.2868 72.5611 31.1906 72.3682 31.0944C72.0788 30.9981 71.8858 30.9981 71.7894 31.1906C71.5965 31.5755 71.3071 31.3831 71.0177 31.3831C70.3424 31.3831 69.7636 31.6718 69.2813 32.1529C69.0883 32.3454 69.0883 32.3454 68.8954 32.3454C67.8343 32.3454 66.9661 33.019 66.0015 33.4039C65.5191 33.5964 65.0368 33.8851 64.8439 34.4625C65.1333 34.655 65.3262 34.8474 65.5191 34.8474C66.0979 34.8474 66.5803 34.7512 66.9661 34.4625C66.9661 33.9813 67.2555 34.0776 67.6414 34.0776C67.8343 34.0776 68.1237 33.9813 68.2202 33.8851L69.0883 33.1153C69.2813 32.9228 69.4742 32.8266 69.5707 33.2115C69.6671 33.2115 69.6671 33.3077 69.7636 33.3077C70.2459 33.019 70.9212 33.3077 71.5 32.7303C71.8858 32.3454 72.4646 32.1529 73.0434 32.1529C73.3328 32.1529 73.5258 32.0567 73.7187 31.768C73.8152 31.5755 73.9116 31.4793 74.1046 31.2868C74.2975 31.0944 74.4904 30.9019 74.7798 31.1906C74.9727 31.3831 75.2621 31.2868 75.4551 31.0944C75.7445 30.8057 76.1303 30.6132 76.6126 30.6132C77.3844 30.6132 77.3844 30.517 77.3844 29.6509V29.3622C76.8056 29.2659 76.4197 29.4584 76.1303 30.0358ZM62.9146 34.9437C62.7216 35.0399 62.7216 35.2324 62.7216 35.3286C62.7216 35.8098 62.5287 35.906 62.0464 35.906C61.8534 35.906 61.8534 35.8098 61.8534 35.6173C61.8534 35.4248 61.6605 35.3286 61.5641 35.4248C61.4676 35.5211 61.3711 35.7135 61.3711 35.8098C61.3711 36.0985 61.1782 36.1947 60.9853 36.0022C60.7923 35.8098 60.5994 35.7135 60.31 36.0022C60.1171 36.0985 59.9241 36.2909 59.7312 36.2909C59.056 36.2909 58.5736 36.7721 57.8984 37.0608C57.8019 37.157 57.8019 37.3495 57.7054 37.4457V38.2156C57.7054 38.2156 57.8019 38.4081 57.8984 38.4081C58.2842 38.2156 58.7666 38.1194 58.863 37.542C58.9595 36.9646 59.2489 36.7721 59.9241 36.7721C60.2135 36.7721 60.5029 36.8683 60.7923 36.8683C62.0464 36.5796 63.204 36.0022 64.458 35.6173C64.7474 35.5211 64.8439 35.3286 64.8439 35.0399V34.4625C64.6509 34.3663 64.5545 34.27 64.3616 34.27C63.8792 34.27 63.3004 34.5587 62.9146 34.9437ZM395.816 98.2649C395.816 98.2649 395.816 98.1687 395.72 98.1687V98.2649H395.816ZM395.816 98.2649L395.913 98.3612C396.106 98.3612 396.106 98.3611 395.816 98.2649Z" fill="#EAAA08"/>
</svg>
