<svg width="95" height="48" viewBox="0 0 95 48" fill="none" xmlns="http://www.w3.org/2000/svg">
<path d="M47.0493 36.9007C46.5199 38.988 46.118 41.1235 45.8553 43.291C45.0941 37.4386 43.2741 31.9314 40.5924 26.9902C41.0406 26.1793 41.512 25.3846 42.0066 24.6058C44.2015 28.3991 45.9171 32.5255 47.0493 36.9007ZM35.1904 15.482C34.5914 16.0239 34.008 16.5818 33.4399 17.1599C35.1981 19.0023 36.8017 21.0013 38.243 23.1287C38.699 22.3821 39.1704 21.6515 39.665 20.933C38.3048 19.0023 36.8094 17.1839 35.1942 15.482H35.1904ZM27.4544 24.6701C26.9598 25.4488 26.4845 26.2435 26.0363 27.0584C28.6948 31.9755 30.5109 37.4506 31.2722 43.2669C31.5349 41.0994 31.9329 38.972 32.4585 36.8927C31.3301 32.5495 29.6299 28.4472 27.4544 24.6741V24.6701ZM56.6284 24.6701C56.1338 25.4488 55.6662 26.2476 55.218 27.0584C57.8688 31.9635 59.681 37.4185 60.4461 43.2188C60.7089 41.0673 61.1069 38.9519 61.6286 36.8847C60.5002 32.5415 58.8078 28.4432 56.6323 24.6701H56.6284ZM71.227 24.6781C70.7324 25.4608 70.2571 26.2556 69.8089 27.0704C72.4635 31.9876 74.2758 37.4587 75.037 43.275C75.3036 41.1275 75.7016 39.0081 76.231 36.9288C75.1027 32.5736 73.4063 28.4593 71.227 24.6781ZM43.1929 9.7179C42.4162 10.1514 41.655 10.609 40.9092 11.0907C42.3621 12.0862 43.7532 13.1699 45.0825 14.334C45.6505 13.752 46.2378 13.186 46.8368 12.6361C45.6698 11.6045 44.4526 10.6331 43.1929 9.72191V9.7179ZM61.4315 12.6401C60.2529 11.5924 59.0241 10.609 57.749 9.68579C56.9684 10.1193 56.2034 10.5769 55.4499 11.0586C56.9221 12.0661 58.3325 13.1619 59.6772 14.338C60.2452 13.756 60.8325 13.19 61.4315 12.6401ZM64.3605 15.47C63.7615 16.0119 63.1742 16.5698 62.6062 17.1438C64.3605 18.9862 65.9679 20.9772 67.4092 23.1046C67.8613 22.362 68.3328 21.6315 68.8274 20.913C67.4672 18.9862 65.9757 17.1639 64.3605 15.466V15.47ZM51.8446 6.05713C50.7202 6.39029 49.6189 6.77162 48.5331 7.19309C49.5957 7.66674 50.6352 8.18054 51.6553 8.73447C52.4049 8.20462 53.1662 7.69484 53.9467 7.20915C53.255 6.80775 52.5556 6.4224 51.8446 6.05312V6.05713ZM49.731 15.4298C49.132 15.9717 48.5447 16.5297 47.9767 17.1037C49.7542 18.9621 51.381 20.9772 52.8339 23.1287C53.286 22.3861 53.7612 21.6555 54.2558 20.937C52.8802 18.9862 51.3655 17.1438 49.731 15.4298ZM94.8753 44.7601C94.798 43.8931 94.6937 43.0301 94.57 42.1751C91.1619 18.34 71.3313 0 47.4589 0C23.5865 0 3.75204 18.344 0.347769 42.1751C0.239574 42.9137 0.146836 43.6563 0.0734179 44.4069C0.0193205 44.9608 0 45.5148 0 46.0727V47.9151H4.34711V46.5865C4.34711 45.9764 4.3703 45.3622 4.43212 44.7561C5.13153 37.84 7.34566 31.3935 10.7229 25.7659C13.7717 31.0001 15.8467 36.9128 16.6775 43.2348C16.9441 41.0753 17.346 38.9639 17.8676 36.9007C16.6234 32.104 14.6797 27.6043 12.1681 23.518C13.9224 20.9491 15.9317 18.5848 18.1535 16.4534C20.1861 18.4965 22.037 20.7363 23.6638 23.1447C24.1197 22.4021 24.5911 21.6716 25.0819 20.9531C23.5362 18.7614 21.8206 16.7103 19.9504 14.8197C21.7394 13.2863 23.6522 11.8975 25.6615 10.6732C27.3578 11.7931 28.9808 13.0174 30.5071 14.3581C31.079 13.7761 31.6624 13.2061 32.2614 12.6561C30.9205 11.464 29.5063 10.3601 28.0379 9.33256C29.7652 8.42539 31.562 7.63865 33.409 6.97634C34.6649 7.5102 35.8898 8.10026 37.0799 8.74651C37.8296 8.21666 38.5908 7.7109 39.3713 7.2252C38.5676 6.75557 37.7445 6.31403 36.9138 5.89256C38.5599 5.46306 40.2446 5.13391 41.9603 4.90511C42.3042 4.99342 42.652 5.08173 42.992 5.17806C43.332 5.00948 43.6759 4.84892 44.016 4.68434C44.7733 4.62413 45.5307 4.57998 46.2997 4.55991C29.6377 11.5603 17.7285 28.2786 17.1218 47.9151H19.506C20.1822 27.1266 34.205 9.79417 52.9343 4.89708C54.6577 5.12588 56.3502 5.45904 58.004 5.89256C42.8645 13.5352 32.2768 29.4307 31.7088 47.9151H34.093C34.6919 29.4267 45.8553 13.6717 61.4972 6.96831C63.3481 7.63062 65.141 8.41736 66.8683 9.32453C54.8432 17.762 46.7904 31.8632 46.2919 47.9151H48.6761C49.1861 32.2565 57.2776 18.5648 69.2447 10.6652C71.2618 11.8935 73.1745 13.2783 74.9636 14.8157C66.6055 23.2772 61.2846 34.962 60.8828 47.9151H63.2669C63.6688 35.5841 68.7694 24.4694 76.7604 16.4454C78.9822 18.5728 80.9916 20.9411 82.7497 23.506C78.3872 30.6068 75.7518 38.9559 75.4736 47.9151H77.8539C78.1167 39.835 80.4081 32.2806 84.1988 25.7699C87.7537 31.6905 90.022 38.5264 90.5861 45.856C90.59 45.8961 90.5939 45.9403 90.6016 45.9804V47.9151H94.9216V45.8118C94.9216 45.4626 94.9101 45.1094 94.8753 44.7601Z" fill="white"/>
</svg>
