<svg width="113" height="45" viewBox="0 0 113 45" fill="none" xmlns="http://www.w3.org/2000/svg">
<path d="M20.7311 0.347733C19.4627 0.419802 17.845 0.678143 16.6731 0.985269C15.8249 1.20813 14.7616 1.55074 14.4068 1.70707C14.3048 1.75475 14.1906 1.79134 14.154 1.79134C14.1174 1.79134 14.0398 1.81573 13.9799 1.85121C13.9256 1.88115 13.7692 1.95322 13.6373 2.00755C12.8257 2.35015 11.1847 3.2039 10.6736 3.54096C10.5295 3.63742 10.4031 3.71503 10.3909 3.71503C10.3543 3.71503 9.84979 4.05764 9.30871 4.44903C8.80977 4.80938 8.59356 4.97791 8.16669 5.33937C8.0281 5.45357 7.82963 5.6221 7.71543 5.71191C7.24642 6.09665 5.83941 7.5336 5.27394 8.20662C4.93133 8.61575 4.36032 9.37858 3.98113 9.9385C3.56645 10.5394 2.84465 11.7358 2.84465 11.8201C2.84465 11.8567 2.82691 11.8921 2.80251 11.9043C2.74264 11.9287 2.30357 12.8124 2.30357 12.9022C2.30357 12.9443 2.27918 12.9743 2.2437 12.9743C2.21376 12.9743 2.18383 13.0042 2.18383 13.0408C2.18383 13.0707 2.1295 13.2271 2.05743 13.3834C1.9909 13.5398 1.89555 13.7626 1.84676 13.8768C1.79798 13.991 1.73256 14.1352 1.70262 14.1895C1.66604 14.2494 1.64275 14.3281 1.64275 14.3702C1.64275 14.4123 1.60616 14.521 1.55849 14.6108C1.51081 14.7006 1.45648 14.8636 1.43209 14.9712C1.40769 15.0787 1.36556 15.194 1.34228 15.2295C1.31789 15.2594 1.27575 15.3858 1.25247 15.5C1.22918 15.6142 1.18594 15.7462 1.15601 15.8005C1.13161 15.8482 1.07839 16.0112 1.0418 16.1609C1.00522 16.3105 0.927602 16.6354 0.861077 16.8827C0.397615 18.7287 0.200256 20.3697 0.200256 22.3001C0.200256 23.8878 0.332199 25.1984 0.657065 26.8027C0.704742 27.0489 0.789007 27.4037 0.837793 27.5844C0.886578 27.7651 0.969735 28.0656 1.01852 28.2452C1.15046 28.7386 1.46313 29.6944 1.5596 29.9106C1.60727 30.0126 1.64386 30.1268 1.64386 30.1634C1.64386 30.2 1.66825 30.2776 1.70373 30.3375C1.73367 30.3918 1.81794 30.5714 1.88446 30.7399C1.95653 30.9018 2.03525 31.0947 2.06519 31.1613C2.22152 31.5338 2.82912 32.7368 3.08747 33.1936C4.45789 35.6351 6.67097 38.1354 8.94947 39.8306C9.11801 39.9504 9.26215 40.0646 9.27988 40.089C9.31647 40.1311 10.6148 40.9849 10.9031 41.1534C11.4686 41.496 12.737 42.1457 13.2781 42.3741C13.3446 42.4041 13.5364 42.4828 13.6994 42.5549C13.8679 42.6214 14.042 42.699 14.0897 42.7289C14.144 42.7589 14.2704 42.801 14.378 42.8188C14.48 42.8431 14.582 42.8908 14.6008 42.9208C14.6252 42.9507 14.6729 42.9751 14.7206 42.9751C14.7682 42.9751 14.8769 43.005 14.9734 43.0472C15.1718 43.1314 15.5865 43.2578 15.9236 43.3421C16.0555 43.372 16.2185 43.4264 16.2839 43.4563C16.3493 43.4862 16.5423 43.5406 16.7052 43.576C16.8738 43.6126 17.1986 43.6847 17.427 43.7379C18.0823 43.8821 18.7376 43.9907 19.6512 44.1049C20.842 44.2491 23.5352 44.2491 24.7016 44.0994C25.8924 43.9486 26.938 43.7568 27.6775 43.5527C27.8583 43.5051 28.1288 43.433 28.2785 43.3964C28.4282 43.3598 28.5911 43.3066 28.6388 43.2822C28.6931 43.2523 28.8251 43.2101 28.9393 43.1858C29.0535 43.1614 29.1799 43.1192 29.2098 43.0959C29.2464 43.0716 29.3606 43.0294 29.4682 43.0061C29.5757 42.9828 29.7387 42.9285 29.8285 42.8797C29.9183 42.8309 30.027 42.7955 30.0691 42.7955C30.1112 42.7955 30.1889 42.7711 30.2498 42.7356C30.3042 42.7057 30.4904 42.6214 30.6523 42.5549C31.2721 42.2899 31.3919 42.2367 32.0837 41.8874C34.7048 40.5646 37.1585 38.6166 39.0401 36.3624C39.7619 35.4965 40.4648 34.4986 41.1323 33.3987C41.3729 33.0018 42.2389 31.2766 42.4307 30.802C42.4905 30.6701 42.5571 30.5137 42.587 30.4594C42.6236 30.3995 42.6469 30.3208 42.6469 30.2853C42.6469 30.2499 42.6835 30.1345 42.7311 30.0325C42.9418 29.5635 43.3986 28.049 43.5849 27.2252C43.9874 25.4401 44.1016 24.3213 44.1082 22.2956C44.1138 20.4983 44.0605 19.8308 43.8078 18.4482C43.6337 17.4747 43.2245 15.8205 43.1225 15.653C43.0981 15.6165 43.0627 15.4967 43.0383 15.3825C43.0139 15.2683 42.9717 15.1419 42.9485 15.112C42.9241 15.0754 42.8819 14.9556 42.8587 14.8414C42.8354 14.7272 42.7921 14.6008 42.7744 14.5709C42.75 14.5343 42.6779 14.3724 42.618 14.2105C42.3952 13.5908 41.6623 12.0518 41.313 11.4874C41.1866 11.2834 41.0846 11.0972 41.0846 11.0783C41.0846 10.9275 39.4193 8.60134 38.8538 7.9516C38.5168 7.56686 36.8758 5.9259 36.4911 5.58884C35.7881 4.97569 33.8943 3.62301 33.3887 3.38241C33.3411 3.35801 33.1359 3.23827 32.9375 3.11741C32.739 2.99656 32.2279 2.73267 31.7955 2.52201C31.3686 2.318 30.9362 2.10733 30.8452 2.05855C30.7488 2.01087 30.6412 1.97428 30.6046 1.97428C30.5625 1.97428 30.4661 1.93769 30.3818 1.89667C30.2975 1.85565 30.0569 1.75807 29.8407 1.68046C29.6245 1.60839 29.4083 1.52413 29.3595 1.49419C29.3052 1.4698 29.1732 1.42766 29.059 1.40438C28.9448 1.3811 28.8251 1.34451 28.7885 1.32011C28.6322 1.22365 27.1775 0.856653 26.2328 0.677034C24.6872 0.382104 22.4154 0.250162 20.7311 0.352168V0.347733ZM22.6726 2.73489C22.6848 3.29371 22.6781 3.35469 22.5706 3.40791C22.5041 3.4445 21.6747 3.73277 20.719 4.04544C19.7687 4.36366 18.9449 4.64085 18.8973 4.67078C18.8429 4.70072 18.711 4.74285 18.5968 4.76725C18.4826 4.79164 18.3628 4.83377 18.3263 4.85706C18.2963 4.88145 18.1699 4.92358 18.0557 4.94687C17.9415 4.97015 17.8218 5.01339 17.7852 5.03668C17.7552 5.06107 17.6532 5.09655 17.5623 5.12094L17.3938 5.15753V7.11116L17.0989 7.30409C16.672 7.58017 16.4735 7.95382 16.468 8.49489C16.4624 9.38523 17.0146 9.93739 17.9049 9.93739C18.4338 9.93739 18.7831 9.77551 19.0769 9.37858C19.2809 9.1025 19.2875 9.08365 19.2875 8.52483C19.2875 7.96602 19.2753 7.94162 19.1068 7.70102C19.0104 7.56243 18.8119 7.37616 18.6744 7.28635L18.4161 7.12447V6.54126C18.4161 5.89818 18.4338 5.86159 18.7764 5.78952C18.8906 5.76513 19.017 5.723 19.0469 5.69971C19.0835 5.67532 19.2033 5.63319 19.3175 5.6099C19.4317 5.58662 19.5581 5.54338 19.588 5.52009C19.6246 5.4957 19.7444 5.45357 19.8586 5.43028C19.9728 5.407 20.0992 5.36376 20.1291 5.34048C20.1657 5.31608 20.2854 5.27395 20.3996 5.25067C20.5138 5.22738 20.6402 5.18414 20.6702 5.16086C20.7068 5.13646 20.8265 5.09433 20.9407 5.07105C21.0549 5.04776 21.1813 5.00452 21.2112 4.98124C21.2478 4.95684 21.3676 4.91471 21.4818 4.89143C21.596 4.86814 21.7224 4.8249 21.7523 4.80162C21.7889 4.77723 21.9087 4.73509 22.0229 4.71181C22.1371 4.68852 22.2635 4.64528 22.2934 4.622C22.33 4.59761 22.4497 4.55547 22.5639 4.53219C22.6781 4.50891 22.8045 4.46566 22.8345 4.44238C22.8711 4.41799 22.9908 4.37585 23.105 4.35257C23.2192 4.32929 23.3511 4.28605 23.4055 4.25611C23.4532 4.23172 23.5441 4.19624 23.6039 4.1785C23.6938 4.14856 23.7059 4.04655 23.7059 3.18061V2.21821L24.1151 2.22375C24.3379 2.22375 24.6684 2.24815 24.8491 2.27808C25.7871 2.41668 26.0399 2.45881 26.2317 2.51203C26.3459 2.54197 26.5566 2.5963 26.7007 2.63843L26.9535 2.70495V9.18011L26.7306 9.3187C26.1419 9.6857 25.9013 10.2501 26.0454 10.9541C26.1297 11.3566 26.4002 11.6937 26.8027 11.8921C27.0489 12.0119 27.1453 12.0307 27.56 12.0063C27.9747 11.9819 28.0645 11.9587 28.2574 11.8023C28.3772 11.7003 28.5579 11.5196 28.6599 11.3998C28.8162 11.2069 28.8406 11.1171 28.8639 10.7024C28.8872 10.2878 28.8694 10.1913 28.7497 9.94515C28.6111 9.66907 28.1842 9.25329 28.0401 9.25329C27.9924 9.25329 27.9736 8.43613 27.9736 6.12659C27.9736 3.81704 27.9913 2.99988 28.0456 2.99988C28.1354 2.99988 29.3019 3.39682 29.7287 3.57755C30.4738 3.89022 31.5138 4.37696 31.5804 4.44349C31.5981 4.46123 31.7489 4.5455 31.9108 4.63641L32.2112 4.79829L32.229 9.92076C32.2412 14.6219 32.2345 15.0554 32.1447 15.1574C32.0848 15.2173 32.0061 15.2661 31.964 15.2661C31.8376 15.2661 31.4229 15.7828 31.3508 16.0356C31.128 16.7696 31.4174 17.4725 32.0604 17.8096C32.7634 18.1766 33.5872 17.9238 33.9841 17.2319C34.3811 16.5345 34.1227 15.5843 33.4309 15.2295L33.2623 15.1397V10.3354C33.2623 7.19654 33.2801 5.52009 33.3222 5.4957C33.3588 5.47796 33.3821 5.49016 33.3821 5.52009C33.3821 5.55668 33.412 5.58662 33.4486 5.58662C33.5628 5.58662 35.0053 6.69871 35.6606 7.29965C36.0398 7.64226 36.8514 8.45387 37.1874 8.82087L37.4701 9.13908V15.3736L37.2772 15.4934C36.796 15.7939 36.5676 16.1963 36.5676 16.7441C36.5676 17.5557 37.0842 18.1333 37.8726 18.1988C39.4182 18.3185 40.0735 16.3172 38.7507 15.4989L38.5522 15.3725V13.0042C38.5522 11.6992 38.5766 10.6359 38.5999 10.6359C38.6476 10.6359 39.111 11.3089 39.2607 11.5983C39.3029 11.6826 39.3749 11.7912 39.4171 11.8389C39.4592 11.8866 39.549 12.0374 39.6155 12.1693C39.8195 12.5663 39.9648 12.8301 39.9947 12.8612C40.0546 12.9211 40.4271 13.7094 40.7886 14.5443C41.1855 15.4524 41.6967 17.0634 41.8708 17.9415C42.0149 18.6988 42.1047 19.2465 42.159 19.7155C42.1956 19.9983 42.2433 20.4606 42.2788 20.7434C42.3564 21.4286 42.3564 23.0817 42.2732 23.8335C42.1413 25.0897 42.0204 25.9556 41.924 26.3581C41.8874 26.4901 41.8098 26.8393 41.7377 27.1398C41.5869 27.7596 41.5692 27.8195 41.2931 28.6732C40.986 29.599 40.8296 29.9782 40.3795 30.9273C39.712 32.3277 38.8649 33.6804 37.897 34.8889C37.2894 35.6462 36.0453 36.939 35.3357 37.5521C34.7048 38.0988 33.3754 39.0734 33.3156 39.0368C33.2856 39.019 33.2612 38.183 33.2612 37.173C33.2612 35.736 33.279 35.3457 33.3388 35.3457C33.483 35.3457 33.8677 34.9665 34.0119 34.6782C34.2879 34.1316 34.1737 33.3732 33.7591 32.9951C33.3865 32.6581 33.2601 32.6104 32.7191 32.6104C32.2678 32.6104 32.178 32.6281 31.9673 32.7667C31.4684 33.0916 31.24 33.5662 31.2943 34.1494C31.3364 34.6062 31.5471 34.9665 31.9374 35.2493L32.2379 35.4655V39.7342L32.0094 39.8783C31.5526 40.1666 30.0015 40.8884 29.2919 41.1412C29.0457 41.231 28.7453 41.3452 28.6311 41.3873C28.5169 41.435 28.3184 41.4894 28.1986 41.5137L27.9702 41.5503V33.3078L28.3971 33.0495C28.6311 32.9053 28.8905 32.7424 28.9803 32.6891C29.0701 32.6293 29.1843 32.5627 29.2331 32.5383C29.2808 32.5206 29.3351 32.484 29.3529 32.4607C29.3706 32.443 30.1645 31.9496 31.1147 31.373C32.0649 30.7954 32.9186 30.2787 33.0084 30.2244C33.0982 30.1645 33.2124 30.098 33.2612 30.0736C33.31 30.0492 33.4597 29.9594 33.5861 29.8629C33.7125 29.7731 33.8566 29.6944 33.8988 29.6944C33.9409 29.6944 33.983 29.67 33.9952 29.6467C34.0074 29.6234 34.5962 29.2498 35.3058 28.8229C36.0154 28.396 36.6108 28.0235 36.6163 27.9991C36.6285 27.9747 36.664 27.9514 36.694 27.9514C36.7305 27.9514 36.9346 27.8372 37.1574 27.6931C37.3803 27.5489 37.7828 27.2961 38.0588 27.1342L38.5522 26.8393V22.2646L38.7507 22.1504C39.5623 21.6758 39.7065 20.515 39.0268 19.8475C38.7086 19.5348 38.4802 19.4627 37.9269 19.4871C37.4878 19.5049 37.4158 19.5237 37.1574 19.71C36.5798 20.1247 36.3879 20.9363 36.7183 21.5561C36.8869 21.8743 36.9889 21.983 37.2772 22.1515L37.4701 22.2657V24.2615C37.4701 25.9989 37.4579 26.2761 37.3736 26.3537C37.3259 26.408 37.2472 26.4501 37.1995 26.4501C37.1574 26.4501 37.1097 26.4745 37.0975 26.4978C37.092 26.5222 36.3702 26.979 35.4987 27.5079C34.6328 28.0312 33.8456 28.5124 33.7546 28.5657C33.6648 28.6255 33.5562 28.6921 33.5085 28.7164C33.4608 28.7342 33.2435 28.8728 33.0273 29.0169C32.8111 29.1555 32.6004 29.2753 32.5583 29.2753C32.5217 29.2753 32.4807 29.2997 32.4685 29.3229C32.4563 29.3595 30.3818 30.6457 29.7875 30.9883C29.7276 31.0182 29.5048 31.1568 29.2885 31.2888C29.0779 31.4207 28.8439 31.5593 28.7841 31.6014C28.7175 31.6436 28.2796 31.9086 27.8106 32.1968L26.9513 32.7202V37.2772C26.9513 42.4717 27.0234 41.9062 26.3736 42.0204C24.8347 42.291 24.2448 42.3697 23.3733 42.393L22.7125 42.4107L22.6948 41.8519C22.6826 41.3652 22.6892 41.2931 22.7846 41.2565C22.983 41.1844 23.278 40.9316 23.3922 40.7398C23.849 39.9648 23.5851 39.0379 22.8034 38.6421C22.1005 38.2873 21.3421 38.5157 20.8919 39.2253C20.7655 39.4293 20.7356 39.5379 20.7356 39.9171C20.7356 40.4948 20.8742 40.7831 21.331 41.1257L21.6614 41.3718V41.8763C21.6614 42.1468 21.637 42.3874 21.6071 42.4052C21.535 42.4473 19.7488 42.3387 19.3286 42.2666C19.1423 42.23 18.8241 42.1701 18.6256 42.1347C18.4271 42.0992 18.1211 42.0448 17.9404 42.0149C17.3517 41.9129 17.3938 42.0204 17.3938 40.4693C17.3938 39.7176 17.4182 39.0745 17.4415 39.0379C17.4647 39.0013 17.5801 38.9481 17.6943 38.9237C17.8085 38.8993 17.9404 38.8572 17.9947 38.8272C18.0424 38.7973 19.119 38.4303 20.3874 38.0156L22.6837 37.2461V28.3306L22.9243 28.1687C23.7359 27.6332 23.8501 26.5278 23.1649 25.8481C22.9187 25.6075 22.7081 25.5232 22.2513 25.4988C21.8543 25.4744 21.7523 25.4933 21.5295 25.6075C20.964 25.8958 20.7356 26.2628 20.7356 26.9003C20.7356 27.4957 20.9584 27.8804 21.4995 28.223L21.6614 28.3251V36.4833L21.4807 36.5676C21.3842 36.6219 21.2157 36.6818 21.1081 36.6995C20.9995 36.7239 20.8853 36.766 20.8498 36.7893C20.8199 36.8137 20.6935 36.8558 20.5792 36.8791C20.465 36.9024 20.3453 36.9457 20.3087 36.9689C20.2788 36.9933 20.1524 37.0355 20.0382 37.0587C19.924 37.082 19.8042 37.1253 19.7676 37.1486C19.7377 37.173 19.6113 37.2151 19.4971 37.2384C19.3829 37.2617 19.2632 37.3049 19.2266 37.3282C19.1966 37.3526 19.0702 37.3947 18.956 37.418C18.8418 37.4413 18.7099 37.4845 18.6556 37.5145C18.6079 37.5388 18.1744 37.6885 17.6931 37.8449C17.2119 37.9957 16.7197 38.1631 16.5988 38.2174L16.3704 38.3072V39.7142C16.3704 40.4837 16.346 41.1146 16.3161 41.1146C16.244 41.1146 15.7451 40.5613 15.1973 39.8817C15.0654 39.7131 14.939 39.569 14.9213 39.5512C14.7172 39.3705 13.6462 37.8194 13.1118 36.9357C12.5341 35.9855 11.8012 34.3445 11.8012 34.0196C11.8012 33.9598 11.7768 33.8932 11.7469 33.8755C11.7169 33.8511 11.6748 33.6948 11.6504 33.5207C11.626 33.3522 11.5783 33.1714 11.5418 33.1304C11.4575 33.0218 11.4098 31.0559 11.4874 30.6834C11.626 30.0403 11.6914 29.782 11.7458 29.721C11.7757 29.691 11.8001 29.6245 11.8001 29.5768C11.8001 29.4571 12.2325 28.6089 12.2935 28.6089C12.3179 28.6089 12.3412 28.579 12.3412 28.5424C12.3412 28.4337 12.8523 27.815 13.2792 27.4059C13.7903 26.9191 14.1451 26.6364 14.5232 26.408C14.6851 26.3115 14.9024 26.1796 15.0044 26.1197C15.3836 25.8913 16.3748 25.4223 16.478 25.4223C16.5079 25.4223 16.6165 25.3802 16.7064 25.3325C16.8028 25.2848 16.9226 25.2427 16.9769 25.2427C17.0246 25.2427 17.0911 25.2183 17.1277 25.1884C17.1576 25.164 17.2896 25.1108 17.4226 25.0742C17.5557 25.0376 17.8129 24.9655 17.9936 24.9123C19.9351 24.3468 22.8755 24.1129 24.9977 24.3657C26.3448 24.522 27.5944 24.7925 28.1366 25.0387C28.2386 25.0864 28.365 25.123 28.4126 25.123C28.467 25.123 28.5213 25.1473 28.539 25.1773C28.5568 25.2072 28.6477 25.2494 28.7375 25.2737C28.8273 25.2915 28.9182 25.3336 28.936 25.3514C28.9537 25.3758 29.1045 25.46 29.2664 25.5376C29.7298 25.766 30.2343 26.1208 30.6911 26.5533C31.3043 27.1365 31.3109 27.1365 31.4484 26.9435C31.9052 26.2827 32.2057 25.368 32.3742 24.1594C32.4408 23.655 32.3986 21.9586 32.3144 21.851C32.2844 21.8144 32.2367 21.6581 32.2179 21.5017C32.1935 21.3454 32.1514 21.2013 32.1159 21.1835C32.0859 21.1591 32.0616 21.0993 32.0616 21.0449C32.0616 20.8886 31.6591 20.1369 31.3941 19.7887C31.0448 19.3441 30.4383 18.7908 29.8252 18.3695C29.5125 18.1588 29.008 17.8883 28.5202 17.6721C28.4603 17.6422 28.4359 17.4681 28.4304 16.9747C28.4126 16.2296 28.3406 15.8626 28.1177 15.3869C27.9614 15.0565 27.5345 14.4667 27.3305 14.2992C26.4945 13.6074 25.888 13.2293 24.787 12.7004C24.4078 12.5141 24.053 12.3456 24.0053 12.3212C23.951 12.2913 23.8246 12.2492 23.717 12.2314C23.615 12.207 23.513 12.1593 23.4942 12.1294C23.4698 12.0995 23.4099 12.0751 23.3556 12.0751C23.3013 12.0751 23.1815 12.0385 23.0972 11.9908C23.013 11.9487 22.8389 11.8944 22.7125 11.8711C22.5928 11.8467 22.442 11.8045 22.3876 11.7746C22.1537 11.6482 20.7522 11.33 19.496 11.1193C18.2697 10.9087 17.3317 10.8189 15.7384 10.7468C14.3802 10.6803 13.9588 10.6869 12.5219 10.7767C10.8621 10.8787 10.0627 10.963 8.94504 11.1371C8.12788 11.269 7.73649 11.3477 6.31728 11.6659C6.13101 11.7136 5.95693 11.768 5.93254 11.7923C5.90815 11.8167 5.84273 11.8345 5.7884 11.8345C5.73407 11.8345 5.50567 11.8888 5.28392 11.9609C5.06217 12.0329 4.86259 12.0751 4.84485 12.0507C4.80826 12.0141 5.30166 11.1548 5.38038 11.1249C5.40477 11.1127 5.42806 11.0772 5.42806 11.0473C5.42806 10.9696 6.44368 9.6225 6.89494 9.09917C7.86843 7.97489 9.37745 6.59781 10.4186 5.88266C10.4906 5.83498 10.6348 5.73187 10.7368 5.65425C11.0739 5.41365 11.0794 5.43139 11.0794 6.42373V7.32515L10.8455 7.46929C10.5627 7.65002 10.3166 7.96269 10.2024 8.26871C9.94403 9.00271 10.3886 9.86754 11.1526 10.1081C11.5617 10.2345 11.646 10.2345 12.0185 10.1081C12.8667 9.82541 13.2869 8.93618 12.9388 8.1667C12.8068 7.87843 12.4277 7.4449 12.3013 7.4449C12.2591 7.4449 12.1992 7.39057 12.1627 7.3307C12.0906 7.1921 12.0784 4.9258 12.1505 4.8116C12.2469 4.66081 13.5697 3.99999 14.6696 3.54318C15.3847 3.24825 16.9126 2.75596 17.1044 2.75596C17.1709 2.75596 17.2663 2.73156 17.3273 2.69608C17.3871 2.66615 17.5978 2.61182 17.7907 2.57634C18.8784 2.37233 19.1611 2.32354 19.6789 2.26921C19.9916 2.23928 20.424 2.18495 20.6413 2.16055C20.8575 2.13062 21.3986 2.11288 21.8432 2.11842L22.6548 2.12397L22.6726 2.73711V2.73489ZM22.5107 6.39601C22.1925 6.57009 22.0716 6.69094 21.9098 6.99696C21.7412 7.30963 21.6991 7.66443 21.7834 8.06691C21.8377 8.33745 21.9031 8.46385 22.1016 8.66232C22.4686 9.02932 22.6848 9.12578 23.1593 9.12578C24.0375 9.12578 24.6085 8.56696 24.6085 7.70657C24.6085 7.06903 24.2714 6.55789 23.6882 6.31175C23.3999 6.18535 22.8101 6.22748 22.5096 6.39601H22.5107ZM16.529 26.6752C16.5112 26.6996 16.4148 26.7417 16.3183 26.7595C16.0954 26.8072 15.6985 27.1864 15.5488 27.5046C15.3991 27.8228 15.4102 28.4359 15.5732 28.7553C15.7051 29.008 15.928 29.2298 16.2107 29.405L16.3726 29.507V33.6249L16.0899 33.8356C15.9335 33.9498 15.7229 34.166 15.6264 34.3101C15.4701 34.5441 15.4457 34.6283 15.4457 35.0319C15.4457 35.4355 15.4634 35.5253 15.6142 35.7593C15.8071 36.0598 15.897 36.1562 16.1608 36.3303C16.4247 36.5044 17.345 36.5044 17.6033 36.3303C18.0546 36.0298 18.3551 35.5309 18.3551 35.0796C18.3551 34.5807 18.0967 34.1483 17.5257 33.7025C17.3938 33.5939 17.3938 33.5883 17.3938 31.5504V29.5059L17.6277 29.3617C18.0546 29.0912 18.3551 28.5623 18.3551 28.0811C18.3551 27.5456 17.8683 26.8482 17.4348 26.7584C17.345 26.7406 17.2541 26.6985 17.2363 26.6741C17.2186 26.6442 17.0623 26.6198 16.8815 26.6198C16.7008 26.6198 16.5445 26.6442 16.5267 26.6741L16.529 26.6752ZM26.9236 26.7295C26.7916 26.7772 26.5566 26.9524 26.4002 27.1087C25.7505 27.7762 25.8891 28.7985 26.7129 29.3518C26.9413 29.5081 27.0256 29.5325 27.4281 29.5325C27.8305 29.5325 27.9215 29.5148 28.1554 29.364C28.4925 29.1533 28.5945 29.0457 28.7508 28.7508C28.9249 28.4259 28.9249 27.7651 28.7508 27.4336C28.3905 26.7661 27.6088 26.4601 26.9236 26.7307V26.7295ZM37.3248 29.5136C36.8204 29.7842 36.5498 30.241 36.5554 30.8364C36.5554 31.179 36.5798 31.2688 36.766 31.5637C37.0731 32.0383 37.4268 32.2312 37.9868 32.2368C38.6365 32.2368 39.0867 31.954 39.3395 31.383C39.4659 31.1069 39.508 30.445 39.406 30.3851C39.376 30.3674 39.3339 30.2831 39.3162 30.1922C39.2618 29.976 38.9436 29.6511 38.6487 29.507C38.2994 29.3385 37.6508 29.3385 37.3259 29.5125L37.3248 29.5136ZM49.5411 11.5883V0.316687H55.2701C56.7913 0.316687 57.889 0.665947 58.5642 1.36446C59.2417 2.06298 59.5798 3.19503 59.5798 4.76059C59.5798 6.32616 59.551 7.50034 59.4934 8.14896C59.4357 8.79759 59.3171 9.31981 59.1375 9.71231C58.8215 10.3765 58.3569 10.8566 57.7426 11.1504C57.1306 11.442 56.2891 11.5883 55.218 11.5883H49.54H49.5411ZM52.1434 9.3564H54.8831C55.7036 9.3564 56.2547 9.13797 56.5363 8.70002C56.6816 8.46385 56.7836 8.14785 56.8412 7.75424C56.8978 7.35842 56.9277 6.72642 56.9277 5.85938C56.9277 4.42908 56.8035 3.53431 56.5563 3.17507C56.3057 2.77924 55.7713 2.58077 54.9497 2.58077H52.1434V9.35751V9.3564ZM64.2422 0.317796V11.5883H61.6399V0.316687H64.2422V0.317796ZM71.3582 5.40257H76.392C76.4152 6.32727 76.4274 7.07125 76.4274 7.6345C76.4274 8.50155 76.3698 9.15682 76.2556 9.59589C76.1436 10.0339 75.9363 10.4164 75.6347 10.7446C75.2832 11.1038 74.8142 11.3488 74.2277 11.4797C73.6433 11.6094 72.6876 11.6748 71.3593 11.6748C69.9157 11.6748 68.9067 11.5562 68.3346 11.3189C67.6017 11.004 67.0806 10.5217 66.7713 9.87308C66.4608 9.22446 66.3067 8.26982 66.3067 7.00805C66.3067 4.67744 66.4131 3.18394 66.6271 2.52977C66.952 1.47312 67.696 0.77904 68.8591 0.450847C69.3979 0.3056 70.3769 0.232422 71.7984 0.232422C72.8007 0.232422 73.528 0.269011 73.9793 0.342189C74.4295 0.415367 74.8464 0.559506 75.23 0.775714C75.6225 1.00079 75.9097 1.34451 76.0893 1.80686C76.2689 2.2681 76.3709 2.92116 76.3942 3.76493H73.7598C73.7021 3.1784 73.5458 2.80696 73.2908 2.65063C73.038 2.49207 72.4559 2.41224 71.5445 2.41224C70.8116 2.41224 70.276 2.4699 69.9379 2.5841C69.6019 2.69608 69.3591 2.89899 69.2105 3.18948C69.0431 3.52876 68.9599 4.39138 68.9599 5.77622C68.9599 7.39722 69.0376 8.3818 69.1939 8.73106C69.3048 9.01269 69.531 9.21115 69.8702 9.32536C70.2084 9.43734 70.7218 9.49389 71.4103 9.49389C72.4104 9.49389 73.0657 9.37525 73.3761 9.13798C73.6855 8.90181 73.8407 8.394 73.8407 7.61787C73.8407 7.59458 73.8296 7.47151 73.8097 7.24643H71.3593V5.40146L71.3582 5.40257ZM81.0221 0.317796V11.5883H78.4199V0.316687H81.0221V0.317796ZM88.2712 2.56525V11.5883H85.669V2.56414H82.6287V0.316687H91.4644V2.56414H88.2712V2.56525ZM99.8311 9.54489H95.3883L94.763 11.5883H92.0587L95.6223 0.317796H99.5262L103.141 11.5883H100.472L99.8311 9.54489ZM99.2878 7.63339L97.6147 2.27587L95.9616 7.63339H99.2867H99.2878ZM107.163 0.317796V9.34088H112.149V11.5883H104.56V0.316687H107.162L107.163 0.317796ZM56.8268 23.0596H58.9567C58.9434 24.0186 58.9201 24.6839 58.8869 25.0564C58.8525 25.4268 58.7793 25.776 58.6685 26.1042L60.1065 27.3549L58.9379 28.7575L57.7382 27.7418C57.4222 28.1587 57.0364 28.4415 56.5818 28.59C56.1261 28.7353 55.3843 28.8085 54.3587 28.8085C53.1646 28.8085 52.2776 28.7519 51.6977 28.6399C51.1189 28.5257 50.6554 28.3151 50.3062 28.0113C49.7296 27.5057 49.4425 26.5832 49.4425 25.2405C49.4425 24.1151 49.6964 23.3212 50.2042 22.8611C50.4747 22.6105 50.9138 22.4586 51.5214 22.4043C51.1389 22.055 50.896 21.759 50.794 21.5173C50.692 21.2756 50.6421 20.8786 50.6421 20.3254C50.6421 19.221 50.9471 18.4715 51.5569 18.0779C52.0747 17.7397 52.9694 17.5701 54.2412 17.5701C55.289 17.5701 56.0817 17.6699 56.6206 17.8672C57.1616 18.0624 57.5408 18.3972 57.7582 18.8718C57.869 19.109 57.9433 19.3585 57.9766 19.618C58.0098 19.8763 58.032 20.3708 58.0431 21.1026H55.8112C55.8112 20.6181 55.7968 20.3054 55.7679 20.1646C55.7413 20.0238 55.6781 19.8863 55.5761 19.7499C55.4298 19.5703 55.0295 19.4805 54.3764 19.4805C53.8232 19.4805 53.4584 19.5503 53.2788 19.6911C53.0992 19.832 53.0093 20.1158 53.0093 20.5427C53.0093 20.8476 53.0537 21.0804 53.1424 21.2379C53.2333 21.3942 53.4584 21.6193 53.8187 21.9098L56.8279 24.5475V23.0584L56.8268 23.0596ZM56.1505 26.3581L52.8053 23.5363C52.5337 23.5474 52.302 23.6472 52.1101 23.8368C51.9305 24.0197 51.8407 24.4488 51.8407 25.123C51.8407 25.8558 51.9693 26.326 52.2277 26.5333C52.4871 26.7429 53.0637 26.846 53.9551 26.846C54.6747 26.846 55.1371 26.8249 55.3466 26.7794C55.5551 26.7329 55.8234 26.5921 56.1516 26.357L56.1505 26.3581ZM72.8262 20.8631H70.3448C70.3448 20.2222 70.2361 19.8153 70.0199 19.6401C69.8059 19.4661 69.2992 19.3785 68.4998 19.3785C67.6217 19.3785 67.0473 19.4639 66.7768 19.6324C66.5085 19.802 66.3743 20.1557 66.3743 20.6957C66.3743 21.3399 66.6094 21.7224 67.0817 21.8444C67.2403 21.8787 67.9277 21.9342 69.1451 22.0129C70.0454 22.0595 70.6985 22.126 71.1032 22.2125C71.5101 22.2967 71.8582 22.4331 72.151 22.6227C72.5124 22.86 72.7663 23.1693 72.9127 23.553C73.0579 23.9355 73.1311 24.4987 73.1311 25.2416C73.1311 26.5943 72.8827 27.5001 72.3882 27.9614C72.039 28.2896 71.591 28.5147 71.0444 28.6333C70.4978 28.7508 69.6551 28.8096 68.5198 28.8096C67.1438 28.8096 66.1559 28.7275 65.5538 28.5634C64.9518 28.3993 64.5083 28.0922 64.2256 27.641C64.0459 27.3704 63.9217 27.0544 63.8541 26.6952C63.7854 26.3359 63.7521 25.8071 63.7521 25.1085H66.2379V25.3114C66.2379 25.8747 66.3566 26.2683 66.5939 26.4912C66.7291 26.6032 66.911 26.6741 67.1405 26.7018C67.3722 26.7307 67.8711 26.7451 68.6373 26.7451C69.1451 26.7451 69.4966 26.7284 69.6928 26.6941C69.8902 26.6608 70.0621 26.5876 70.2084 26.4756C70.4446 26.2827 70.5643 25.9046 70.5643 25.3425C70.5643 24.848 70.4623 24.5331 70.2594 24.3967C70.1242 24.2858 69.9589 24.2149 69.7671 24.1861C69.5764 24.1572 68.9699 24.1096 67.9465 24.0419C67.0218 23.9876 66.3699 23.9288 65.9929 23.8656C65.6148 23.8035 65.2855 23.6993 65.0039 23.553C64.5659 23.3401 64.2511 23.0074 64.0581 22.5562C63.8674 22.106 63.7732 21.4807 63.7732 20.6802C63.7732 19.3618 64.0759 18.4826 64.6835 18.0424C65.0449 17.7841 65.4962 17.6078 66.0361 17.5113C66.5772 17.416 67.3722 17.3672 68.42 17.3672C69.5687 17.3672 70.4146 17.4326 70.9602 17.5623C71.5068 17.6932 71.927 17.926 72.2219 18.262C72.6377 18.7598 72.8473 19.476 72.8473 20.4118C72.8473 20.5915 72.8406 20.7434 72.8273 20.8653L72.8262 20.8631ZM73.9594 28.722V17.4515H78.4376C79.4067 17.4515 80.0143 17.457 80.2626 17.467C81.388 17.5246 82.1985 17.9415 82.6975 18.7177C83.0567 19.3042 83.2363 20.2444 83.2363 21.5394C83.2363 23.1627 82.9203 24.2337 82.2906 24.7515C81.7828 25.1684 81.1851 25.388 80.501 25.4079C80.4777 25.4079 79.8801 25.4256 78.7071 25.4589H76.5616V28.722H73.9594ZM76.5616 23.2115H78.727C79.5364 23.2115 80.0487 23.1117 80.2626 22.911C80.4755 22.7081 80.5831 22.2236 80.5831 21.4574C80.5831 20.882 80.5398 20.4728 80.4545 20.23C80.3702 19.9872 80.205 19.8153 79.9577 19.7144C79.7437 19.6368 79.3723 19.5969 78.8434 19.5969H76.5616V23.2115ZM90.6384 26.6774H86.1956L85.5703 28.7209H82.866L86.4296 17.4503H90.3335L93.9481 28.7209H91.2793L90.6384 26.6774ZM90.0951 24.7659L88.422 19.4084L86.7688 24.7659H90.094H90.0951ZM100.945 24.5819H103.513V24.9334C103.513 25.8348 103.452 26.4912 103.334 26.9025C103.216 27.315 102.983 27.672 102.634 27.9769C102.206 28.3472 101.683 28.5889 101.063 28.7043C100.689 28.7719 99.8733 28.8063 98.6126 28.8063C97.5415 28.8063 96.7809 28.7553 96.3308 28.6544C95.8795 28.5523 95.446 28.3384 95.0291 28.0091C94.4215 27.5245 94.0623 26.8382 93.9503 25.9501C93.8483 25.083 93.7984 23.8202 93.7984 22.1637C93.7984 21.1159 93.8704 20.3209 94.0168 19.7754C94.162 19.2288 94.427 18.7742 94.8096 18.4116C95.2497 17.9959 95.7609 17.7164 96.3452 17.5756C96.9317 17.4348 97.8952 17.365 99.2368 17.365C100.026 17.365 100.597 17.3883 100.952 17.4348C101.306 17.4803 101.641 17.5745 101.957 17.7198C102.712 18.0591 103.168 18.701 103.325 19.6468C103.381 19.9284 103.422 20.4972 103.446 21.3543H100.859C100.848 20.7345 100.787 20.3231 100.675 20.1191C100.56 19.9295 100.372 19.7976 100.112 19.7244C99.8533 19.649 99.4253 19.6113 98.8299 19.6113C97.8154 19.6113 97.169 19.7521 96.8874 20.0338C96.7078 20.2267 96.5947 20.5005 96.547 20.8542C96.5015 21.209 96.4805 21.9841 96.4805 23.1793C96.4805 24.1484 96.5004 24.8003 96.5392 25.1329C96.578 25.4645 96.6601 25.7428 96.7854 25.9689C96.9107 26.194 97.118 26.3515 97.4107 26.4413C97.7023 26.53 98.1469 26.5743 98.7468 26.5743C99.4896 26.5743 100.013 26.5133 100.318 26.3903C100.623 26.265 100.815 26.0288 100.892 25.6796C100.925 25.5443 100.943 25.1784 100.943 24.5819H100.945ZM106.774 19.5958V22.0617H111.792V23.9066H106.774V26.5754H112.183V28.7209H104.172V17.4503H112.113V19.5958H106.774ZM59.9358 34.6184V44.1304H58.8691V36.5144C58.8691 36.0121 58.8736 35.6329 58.8813 35.3768H58.8536C58.8425 35.4233 58.8004 35.5431 58.725 35.7327C58.6673 35.8557 58.5964 36.032 58.5099 36.2604L55.2745 44.1315H54.1924L50.9526 36.3591C50.8406 36.0841 50.722 35.7881 50.5967 35.4754H50.569C50.5789 35.7127 50.5845 36.0598 50.5845 36.5155V44.1315H49.5134V34.6195H51.3662L53.9063 40.7786L54.3055 41.7632C54.3997 41.9927 54.5317 42.3265 54.7046 42.7633H54.7324C54.9718 42.1457 55.2379 41.4849 55.534 40.7786L58.0586 34.6195H59.938L59.9358 34.6184ZM63.2709 34.6184V44.1304H62.1998V34.6184H63.2709ZM73.6345 34.6184V44.1304H71.8793L67.8889 37.6553C67.7448 37.4191 67.6073 37.1929 67.4742 36.9789C67.3412 36.766 67.2403 36.6019 67.1737 36.4866C67.1083 36.3724 67.0651 36.3015 67.0451 36.2715L66.6038 35.5331H66.5761C66.5861 35.8458 66.5916 36.3214 66.5916 36.959V44.1304H65.5206V34.6184H67.2757L70.7384 40.293C70.8249 40.4283 71.2196 41.0702 71.9226 42.22C71.9614 42.2888 72.0567 42.4462 72.2075 42.6924C72.3605 42.9374 72.4747 43.1259 72.5512 43.2589H72.5789C72.5679 42.9463 72.5634 42.4728 72.5634 41.8364V34.6184H73.6345ZM76.9696 34.6184V44.1304H75.8986V34.6184H76.9696ZM85.8519 37.2018H84.7808C84.7808 36.6031 84.7143 36.1939 84.5813 35.9744C84.456 35.7637 84.2553 35.6229 83.9792 35.5519C83.7053 35.4821 83.2452 35.4466 82.5999 35.4466C81.8471 35.4466 81.3148 35.4754 81.0055 35.5331C80.6973 35.5908 80.4678 35.7038 80.3181 35.8735C80.0886 36.1318 79.9744 36.5498 79.9744 37.1275C79.9744 37.938 80.2017 38.4281 80.6585 38.5966C80.8869 38.6831 81.5433 38.7485 82.6276 38.7962C83.5113 38.8461 84.13 38.9048 84.4881 38.9725C84.8451 39.0379 85.1268 39.1554 85.3363 39.3239C85.5836 39.5147 85.7599 39.7719 85.8641 40.0934C85.9672 40.4172 86.0204 40.8629 86.0204 41.4339C86.0204 42.6613 85.7543 43.4452 85.2232 43.7867C84.9472 43.9586 84.5923 44.0761 84.1599 44.1382C83.7275 44.2003 83.0312 44.2324 82.0732 44.2324C81.4058 44.2324 80.9201 44.2047 80.6152 44.1504C80.3125 44.0983 80.0232 43.9974 79.7482 43.8455C79.349 43.6171 79.0929 43.2312 78.9787 42.689C78.9022 42.3298 78.859 41.8309 78.8501 41.1922H79.9212C79.9289 41.7266 79.9422 42.077 79.96 42.2433C79.981 42.4074 80.0376 42.5759 80.1318 42.7478C80.2571 42.9851 80.4545 43.1381 80.7261 43.2046C80.9966 43.27 81.5599 43.3022 82.4147 43.3022C82.8228 43.3022 83.151 43.2966 83.3993 43.2822C83.6466 43.2667 83.8739 43.2334 84.0834 43.1802C84.2919 43.1281 84.4449 43.0649 84.5447 42.9884C84.6467 42.913 84.732 42.7921 84.803 42.6247C84.8751 42.4584 84.9183 42.2832 84.9316 42.097C84.9472 41.9118 84.9549 41.6579 84.9549 41.3352C84.9549 40.8873 84.8939 40.5569 84.7753 40.3429C84.6578 40.13 84.456 39.9903 84.1699 39.9249C83.9437 39.8861 82.988 39.8185 81.3049 39.722C80.429 39.6677 79.8103 39.4503 79.4488 39.0689C79.0896 38.6886 78.91 38.0755 78.91 37.2284C78.91 36.1551 79.1461 35.4377 79.6207 35.0752C79.8868 34.8667 80.2238 34.7226 80.633 34.6417C81.041 34.5618 81.6552 34.5208 82.4735 34.5208C83.3771 34.5208 84.0424 34.5785 84.4704 34.6927C84.8973 34.8046 85.221 35.0087 85.4394 35.3025C85.7144 35.6761 85.8541 36.2549 85.8541 37.041V37.2018H85.8519ZM91.1928 35.6196V44.1315H90.1262V35.6196H87.0316V34.6195H94.2774V35.6196H91.1939H91.1928ZM95.6844 44.1315V34.6195H100.206C101.222 34.6195 101.938 34.8246 102.356 35.2326C102.775 35.6418 102.984 36.3503 102.984 37.3581C102.984 38.2241 102.869 38.8317 102.641 39.1831C102.415 39.5346 101.982 39.763 101.347 39.8672V39.8828C102.352 39.967 102.855 40.5779 102.855 41.72V44.1315H101.788V41.9628C101.788 41.3175 101.636 40.8707 101.331 40.6223C101.169 40.5003 101 40.4183 100.823 40.3762C100.648 40.3318 100.371 40.3096 99.9908 40.3096H96.7554V44.1315H95.6844ZM96.7554 39.3838H99.8466C100.628 39.3838 101.168 39.263 101.469 39.0201C101.768 38.7773 101.918 38.3338 101.918 37.6874C101.918 36.8026 101.831 36.2449 101.659 36.0187C101.45 35.7038 100.97 35.5464 100.217 35.5464H96.7543V39.3838H96.7554ZM112.208 34.6206L108.613 40.1544V44.1326H107.546V40.1544L104.052 34.6206H105.291L107.331 37.8293C107.417 37.9624 107.497 38.0943 107.574 38.2241C107.649 38.3516 107.708 38.4502 107.75 38.5168C107.794 38.5822 107.821 38.6243 107.832 38.6421C107.896 38.7385 107.986 38.8827 108.101 39.0723H108.129C108.415 38.6143 108.672 38.1997 108.899 37.8293L110.939 34.6206H112.208Z" fill="#1978EC"/>
</svg>
