<svg width="125" height="48" viewBox="0 0 125 48" fill="none" xmlns="http://www.w3.org/2000/svg">
<g clip-path="url(#clip0_1425_4989)">
<path fill-rule="evenodd" clip-rule="evenodd" d="M41.5588 31.6417C42.4706 31.6417 43.2151 32.382 43.2151 33.298C43.2151 34.214 42.4748 34.9543 41.5588 34.9543C40.6428 34.9543 39.9025 34.214 39.9025 33.298C39.9025 32.382 40.6428 31.6417 41.5588 31.6417ZM30.0649 28.6887C30.9767 28.6887 31.7212 29.4291 31.7212 30.3451C31.7212 31.2611 30.9809 32.0014 30.0649 32.0014C29.1489 32.0014 28.4086 31.2611 28.4086 30.3451C28.4086 29.4291 29.1489 28.6887 30.0649 28.6887ZM25.4138 6.46218C26.3298 6.46218 27.0701 7.20251 27.0701 8.11851C27.0701 9.03451 26.3298 9.77483 25.4138 9.77483C24.4978 9.77483 23.7575 9.03451 23.7575 8.11851C23.7575 7.20251 24.4978 6.46218 25.4138 6.46218ZM19.5832 31.6459V36.619C19.9638 36.9202 20.2106 37.3886 20.2106 37.9157C20.2106 38.8275 19.4703 39.572 18.5543 39.572C17.6383 39.572 16.8979 38.8316 16.8979 37.9157C16.8979 37.3886 17.1447 36.9244 17.5253 36.619V31.6417C17.1447 31.3405 16.8979 30.8721 16.8979 30.3451C16.8979 29.4291 17.6383 28.6887 18.5543 28.6887C19.4703 28.6887 20.2106 29.4291 20.2106 30.3451C20.2106 30.8721 19.968 31.3364 19.5832 31.6417V31.6459ZM17.5002 44.0139C3.03665 27.4298 24.8868 23.8369 31.9178 27.5343C33.5072 28.3709 33.6536 28.9272 34.3103 29.3496C35.4521 27.9777 36.6693 23.0882 33.708 20.4949C33.1182 19.9805 32.0851 19.1607 31.1482 18.9139C31.5121 16.2077 30.0021 15.1203 28.4169 14.1499C22.7202 10.6616 12.3765 10.6532 5.27018 13.1377C6.8805 10.3186 9.0973 7.89265 11.7449 6.03974V7.9512C11.3768 8.25654 11.1384 8.71663 11.1384 9.23109C11.1384 10.1429 11.8788 10.8874 12.7948 10.8874C13.7108 10.8874 14.4511 10.1471 14.4511 9.23109C14.4511 8.72081 14.221 8.2649 13.8571 7.95957V4.73057C16.9649 3.04078 20.5243 2.08296 24.3096 2.08296H24.3598V3.09934L18.6044 5.02335V7.73371C18.2364 8.03904 18.0021 8.49495 18.0021 9.00941C18.0021 9.92123 18.7425 10.6657 19.6585 10.6657C20.5745 10.6657 21.3148 9.92541 21.3148 9.00941C21.3148 8.49495 21.0806 8.03486 20.7125 7.73371V6.51237L26.4678 4.58836V2.1917C27.3378 2.27536 28.1911 2.41338 29.0276 2.59742V9.9756C28.647 10.2809 28.4044 10.7452 28.4044 11.268C28.4044 12.184 29.1447 12.9244 30.0607 12.9244C30.9767 12.9244 31.717 12.184 31.717 11.268C31.717 10.7452 31.4744 10.2809 31.0938 9.9756V3.15789C32.3737 3.57616 33.5992 4.10317 34.7662 4.73893V16.4461C34.3981 16.7515 34.1597 17.2116 34.1597 17.726C34.1597 18.642 34.9 19.3824 35.816 19.3824C36.732 19.3824 37.4723 18.642 37.4723 17.726C37.4723 17.2116 37.2381 16.7473 36.8659 16.4461V6.03974C38.2001 6.97665 39.4298 8.05577 40.5257 9.26037V16.7055C40.1534 17.0108 39.915 17.4709 39.915 17.9895C39.915 18.9055 40.6553 19.6459 41.5713 19.6459C42.4873 19.6459 43.2277 18.9055 43.2277 17.9895C43.2277 17.4709 42.9893 17.0108 42.617 16.7055V11.954C44.8965 15.4089 46.2224 19.5497 46.2224 24C46.2224 31.4326 42.5208 37.9993 36.8617 41.9603V38.0662C37.2339 37.7609 37.4723 37.3008 37.4723 36.7822C37.4723 35.8703 36.732 35.1258 35.816 35.1258C34.9 35.1258 34.1597 35.8662 34.1597 36.7822C34.1597 37.3008 34.3981 37.7609 34.7704 38.0662V43.2569C33.6076 43.8885 32.3821 44.4197 31.1064 44.8379V36.2844L42.6128 29.2534V23.7741C42.9851 23.4688 43.2235 23.0087 43.2235 22.4901C43.2235 21.5741 42.4832 20.8337 41.5672 20.8337C40.6512 20.8337 39.9108 21.5741 39.9108 22.4901C39.9108 23.0087 40.1492 23.4688 40.5215 23.7741V28.0906L29.015 35.1216V45.4068C27.8272 45.6661 26.6058 45.8292 25.3552 45.8878V44.5159C25.7233 44.2105 25.9617 43.7504 25.9617 43.236C25.9617 42.3242 25.2214 41.5796 24.3054 41.5796C23.3894 41.5796 22.6491 42.32 22.6491 43.236C22.6491 43.7504 22.8833 44.2105 23.2514 44.5159V45.8878C22.0049 45.8292 20.7878 45.6661 19.6041 45.4068V42.5793L25.3552 40.6553V30.32C25.7233 30.0146 25.9575 29.5587 25.9575 29.0443C25.9575 28.1325 25.2172 27.3879 24.3012 27.3879C23.3852 27.3879 22.6449 28.1283 22.6449 29.0443C22.6449 29.5587 22.8791 30.0188 23.2472 30.32V39.1621L17.496 41.0861V44.0139H17.5002ZM24.3096 0C30.9349 0 36.937 2.68526 41.2785 7.03102C45.6201 11.3726 48.3096 17.3747 48.3096 24C48.3096 30.6253 45.6243 36.6274 41.2785 40.969C36.937 45.3106 30.9349 48 24.3096 48C17.6843 48 11.6822 45.3147 7.34059 40.969C2.99483 36.6274 0.30957 30.6295 0.30957 24C0.30957 17.3705 2.99483 11.3726 7.34059 7.03102C11.6822 2.68526 17.6843 0 24.3096 0Z" fill="#1978EC"/>
<path d="M57.9255 19.9261H60.6944C61.1294 19.9261 61.4599 19.8717 61.6857 19.7629C61.9158 19.6542 62.1123 19.4618 62.2797 19.1816C62.5097 18.8009 62.6226 17.8389 62.6226 16.2955C62.6226 14.9069 62.5097 14.0369 62.2797 13.6772C62.0371 13.2715 61.51 13.0665 60.6944 13.0665H57.9255V19.9261ZM54.5083 22.8497V10.1052H61.1754C62.5139 10.1052 63.5386 10.3227 64.2497 10.7535C65.4961 11.5064 66.1235 12.8741 66.1235 14.8609C66.1235 16.7347 66.09 18.0564 66.0273 18.8344C65.9646 19.6124 65.8433 20.2105 65.6634 20.6288C65.2953 21.4193 64.7516 21.9839 64.0405 22.3269C63.3295 22.6699 62.3089 22.8414 60.983 22.8414H54.5083V22.8497Z" fill="#1978EC"/>
<path d="M71.4353 10.1052H68.0181V22.8456H71.4353V10.1052Z" fill="#1978EC"/>
<path d="M79.2318 15.6472H84.9829C85.008 17.0985 85.0206 18.0104 85.0206 18.3784C85.0206 19.307 84.9536 20.0264 84.8198 20.5283C84.686 21.0302 84.4475 21.4694 84.1046 21.8375C83.6988 22.2725 83.1467 22.5653 82.4524 22.7158C81.7581 22.8706 80.6288 22.9459 79.0603 22.9459C77.4918 22.9459 76.3332 22.8079 75.6975 22.5276C74.8442 22.1721 74.2377 21.6158 73.8738 20.8546C73.5099 20.0975 73.3301 19.0226 73.3301 17.6339C73.3301 16.1073 73.3552 14.9194 73.4054 14.0829C73.5057 12.6064 74.0537 11.5356 75.0491 10.8748C75.572 10.5318 76.1408 10.3018 76.7598 10.1888C77.3789 10.0759 78.3618 10.0173 79.7128 10.0173C80.8337 10.0173 81.6535 10.0592 82.168 10.1428C82.6825 10.2265 83.1593 10.3896 83.5901 10.628C84.0627 10.8831 84.4057 11.2805 84.6232 11.8201C84.8407 12.3596 84.962 13.1167 84.9871 14.0829H81.5281C81.4653 13.5726 81.3022 13.2422 81.0429 13.0916C80.7835 12.9368 80.2482 12.8615 79.4493 12.8615C78.7508 12.8615 78.2196 12.9243 77.8641 13.0539C77.5085 13.1794 77.2534 13.3969 77.0986 13.7022C76.9188 14.0452 76.8309 14.9236 76.8309 16.3373C76.8309 17.8765 76.9062 18.8594 77.061 19.2777C77.2785 19.8256 77.9728 20.0975 79.1439 20.0975C80.3151 20.0975 81.0721 19.9009 81.3398 19.5036C81.5071 19.2484 81.595 18.7465 81.6075 17.9936H79.2402V15.643L79.2318 15.6472Z" fill="#1978EC"/>
<path d="M90.3117 10.1052H86.8945V22.8456H90.3117V10.1052Z" fill="#1978EC"/>
<path d="M98.3967 13.0289V22.8456H94.9795V13.0289H91.7505V10.1052H101.835V13.0289H98.3967Z" fill="#1978EC"/>
<path d="M109.288 18.1861L107.682 12.6483L106.118 18.1861H109.288ZM109.957 20.6497H105.39L104.779 22.8456H101.228L105.047 10.1052H110.225L114.102 22.8456H110.627L109.957 20.6497Z" fill="#1978EC"/>
<path d="M118.653 10.1052V19.9261H124.003V22.8456H115.232V10.1052H118.653Z" fill="#1978EC"/>
<path d="M66.3912 27.0325V37.8781H65.1699V29.1949C65.1699 28.6219 65.174 28.1869 65.1866 27.8941H65.1531C65.1406 27.9485 65.0946 28.0823 65.0067 28.2998C64.9398 28.442 64.8603 28.6428 64.7641 28.9021L61.075 37.8781H59.8412L56.1521 29.015C56.0224 28.7013 55.8886 28.3667 55.7464 28.007H55.7129C55.7255 28.2789 55.7296 28.6721 55.7296 29.1949V37.8781H54.5083V27.0325H56.6205L59.5149 34.0551L59.9708 35.1761C60.0796 35.4354 60.2302 35.816 60.4267 36.3138H60.4602C60.7321 35.6111 61.0332 34.854 61.372 34.0551L64.2497 27.0325H66.3954H66.3912Z" fill="#2D2C2A"/>
<path d="M69.8795 27.0325H68.6582V37.8781H69.8795V27.0325Z" fill="#2D2C2A"/>
<path d="M81.3733 27.0325V37.8781H79.374L74.8233 30.4957C74.6602 30.2238 74.5054 29.9687 74.3507 29.7219C74.2001 29.4793 74.083 29.2911 74.0077 29.1614C73.9324 29.0318 73.8822 28.9481 73.8613 28.9188L73.3594 28.074H73.3259C73.3385 28.4337 73.3427 28.9732 73.3427 29.701V37.8781H72.1213V27.0325H74.1206L78.0732 33.503C78.1694 33.6536 78.6212 34.3856 79.4242 35.6989C79.4661 35.7742 79.5748 35.954 79.7505 36.2343C79.9261 36.5145 80.0558 36.732 80.1395 36.8868H80.1729C80.1604 36.5271 80.1562 35.9875 80.1562 35.2597V27.0325H81.3775H81.3733Z" fill="#2D2C2A"/>
<path d="M84.8576 27.0325H83.6362V37.8781H84.8576V27.0325Z" fill="#2D2C2A"/>
<path d="M94.6617 29.9729H93.4403C93.4403 29.2911 93.365 28.8226 93.2145 28.5759C93.0723 28.3374 92.8464 28.1785 92.5327 28.0949C92.219 28.0154 91.692 27.9736 90.9558 27.9736C90.0984 27.9736 89.4961 28.007 89.1448 28.0698C88.7934 28.1367 88.5299 28.2663 88.3542 28.4587C88.0949 28.7515 87.9653 29.2283 87.9653 29.8892C87.9653 30.8094 88.2246 31.3699 88.7474 31.5623C89.0067 31.6585 89.7554 31.7338 90.9893 31.7881C91.9973 31.8425 92.7042 31.9052 93.1099 31.9847C93.5156 32.06 93.8377 32.198 94.0761 32.3904C94.3563 32.6079 94.5571 32.9007 94.6784 33.2688C94.7997 33.6369 94.8582 34.1471 94.8582 34.7954C94.8582 36.1924 94.5529 37.0875 93.9464 37.4765C93.6327 37.6731 93.227 37.8028 92.7335 37.8739C92.2399 37.945 91.4452 37.9784 90.3535 37.9784C89.5965 37.9784 89.0402 37.9492 88.693 37.8906C88.3459 37.832 88.0154 37.7149 87.7017 37.5393C87.2458 37.2799 86.9531 36.8408 86.8234 36.2217C86.7356 35.8118 86.6895 35.2388 86.677 34.5152H87.8983C87.9109 35.1217 87.9234 35.519 87.9485 35.7114C87.9694 35.8997 88.0364 36.0921 88.1451 36.2886C88.2873 36.5605 88.509 36.732 88.8185 36.8073C89.128 36.8826 89.768 36.9202 90.7467 36.9202C91.211 36.9202 91.5874 36.9119 91.8677 36.8951C92.1479 36.8784 92.4114 36.8408 92.6498 36.7822C92.8882 36.7236 93.0639 36.6484 93.1768 36.5647C93.2898 36.4769 93.3901 36.3388 93.4696 36.1506C93.5491 35.9624 93.5993 35.7616 93.616 35.5483C93.6327 35.335 93.6411 35.0464 93.6411 34.6783C93.6411 34.168 93.5742 33.7916 93.4361 33.549C93.3023 33.3064 93.0723 33.1433 92.746 33.068C92.4867 33.0262 91.395 32.9509 89.4794 32.8421C88.4839 32.7752 87.777 32.5285 87.3671 32.0935C86.9572 31.6585 86.7481 30.96 86.7481 29.998C86.7481 28.7724 87.02 27.9526 87.5595 27.5427C87.8649 27.3043 88.2497 27.137 88.7139 27.045C89.1782 26.953 89.8809 26.907 90.8094 26.907C91.8384 26.907 92.5996 26.9739 93.0848 27.1036C93.5742 27.2332 93.9422 27.4675 94.189 27.8021C94.5027 28.2245 94.6617 28.8854 94.6617 29.7846V29.9645V29.9729Z" fill="#2D2C2A"/>
<path d="M100.664 28.1701V37.8781H99.4467V28.1701H95.9165V27.0325H104.177V28.1701H100.664Z" fill="#2D2C2A"/>
<path d="M106.879 32.4616H110.409C111.3 32.4616 111.915 32.3235 112.254 32.0475C112.597 31.7714 112.764 31.2653 112.764 30.5292C112.764 29.5212 112.668 28.8854 112.471 28.6261C112.233 28.2664 111.685 28.0907 110.827 28.0907H106.875V32.4658L106.879 32.4616ZM105.658 37.8739V27.0283H110.811C111.969 27.0283 112.789 27.2625 113.266 27.7268C113.743 28.1911 113.981 28.9983 113.981 30.1486C113.981 31.1357 113.852 31.83 113.592 32.2315C113.333 32.6331 112.839 32.8924 112.112 33.0137V33.0304C113.262 33.1266 113.835 33.8251 113.835 35.1259V37.8739H112.613V35.402C112.613 34.6658 112.442 34.1555 112.095 33.8753C111.911 33.7331 111.718 33.6411 111.518 33.5909C111.317 33.5407 110.999 33.5198 110.568 33.5198H106.879V37.8781H105.658V37.8739Z" fill="#2D2C2A"/>
<path d="M124.099 27.0325L120 33.3399V37.8781H118.779V33.3399L114.797 27.0325H116.211L118.536 30.6923C118.632 30.8429 118.724 30.9934 118.812 31.1398C118.9 31.2862 118.967 31.3991 119.017 31.4744C119.067 31.5497 119.097 31.5999 119.105 31.6208C119.18 31.7296 119.285 31.8927 119.415 32.1102H119.448C119.774 31.5916 120.067 31.1189 120.326 30.6965L122.652 27.0367H124.099V27.0325Z" fill="#2D2C2A"/>
</g>
<defs>
<clipPath id="clip0_1425_4989">
<rect width="123.789" height="48" fill="white" transform="translate(0.30957)"/>
</clipPath>
</defs>
</svg>
