<svg width="451" height="14" viewBox="0 0 451 14" fill="none" xmlns="http://www.w3.org/2000/svg">
<path d="M449.958 4.30608C449.737 4.01808 449.294 3.82608 448.63 3.73008C445.531 3.25008 442.21 3.25008 439.11 3.05808C437.339 2.96208 435.789 2.96208 434.018 2.77008C432.911 2.67408 431.583 2.57808 430.255 2.57808C429.148 2.57808 428.041 2.38609 426.934 2.38609C426.713 2.38609 426.27 2.29008 426.048 2.38609C424.499 2.57808 423.17 2.38608 421.842 2.29008C420.514 2.19408 419.407 2.19408 418.3 2.09808C416.972 2.38608 415.865 1.90608 414.758 2.00208C413.429 2.09808 411.88 1.81009 410.551 1.90609C409.002 2.00209 407.452 1.61809 405.902 1.90609C405.681 1.90609 405.017 1.81008 404.574 1.81008C403.688 1.81008 402.581 1.71408 401.696 1.61808C400.367 1.52208 398.818 1.33008 397.489 1.52208C395.94 1.71408 394.611 1.42608 393.283 1.33008L391.069 1.42609C390.848 1.42609 390.405 1.52209 390.184 1.42609C388.413 1.13809 386.863 1.33008 385.092 1.33008C384.428 1.23408 383.542 1.33009 382.878 1.23409C379.557 0.754088 376.236 1.04208 372.915 1.04208C371.144 1.04208 369.373 0.946087 367.602 0.946087C364.724 0.946087 361.846 0.754078 358.968 0.754078C356.533 0.754078 354.097 0.75408 351.441 0.56208C349.891 0.46608 348.341 0.466087 346.792 0.466087C346.349 0.466087 345.906 0.562087 345.463 0.466087C343.249 0.370087 341.036 0.466083 338.6 0.370082C334.394 0.178083 329.966 0.562081 325.76 0.0820804C325.317 0.0820804 324.874 0.178085 324.431 0.178085C322.66 0.178085 321.111 0.274078 319.34 0.274078C318.454 0.274078 317.347 -0.0139226 316.24 0.274078C315.133 -0.0139226 314.026 0.0820776 312.698 0.274078C312.034 0.370077 311.37 0.370077 310.705 0.274078C308.934 -0.0139226 307.385 -0.0139155 305.614 0.178085C304.728 0.274085 303.621 -0.0139226 302.514 0.274078C300.964 -0.0139226 298.972 0.274085 297.201 0.178085C295.43 0.0820847 293.659 -0.0139226 291.887 0.274078C290.338 -0.0139226 288.345 0.0820804 286.574 0.0820804C285.91 0.178081 285.246 0.178085 284.582 0.178085C284.139 0.178085 283.475 0.370077 283.032 0.274078C282.146 0.0820776 281.039 0.178085 279.933 0.178085C279.047 0.178085 277.94 0.0820804 276.833 0.0820804C275.062 0.0820804 273.512 0.178081 271.741 0.0820804C270.191 -0.0139198 268.642 0.274081 267.092 0.0820804C265.542 -0.109919 263.771 0.274078 262.222 0.274078C256.908 0.274078 251.816 0.274083 246.724 0.370082C245.396 0.0820826 244.068 0.370082 242.739 0.370082C241.411 0.370082 240.083 0.178083 238.754 0.370082C238.09 0.466083 237.205 0.466087 236.319 0.466087C233.441 0.466087 230.342 0.562087 227.464 0.466087C225.914 0.754087 224.143 0.658085 222.372 0.658085C218.83 0.658085 215.066 0.562078 211.302 0.754078C209.088 0.850078 207.096 0.946087 204.882 0.946087H199.79C198.019 0.946087 196.248 0.85008 194.477 1.04208C192.706 1.23408 191.156 0.94608 189.606 1.04208C187.614 1.13808 185.621 1.04209 183.85 1.23409C182.079 1.42609 180.087 1.04208 178.316 1.52208H177.651C175.438 1.13808 173.224 1.33008 171.231 1.33008C169.017 1.33008 166.803 1.33008 164.811 1.61808C164.147 1.71408 163.704 1.71408 163.04 1.61808C162.597 1.52208 161.933 1.52208 161.269 1.61808C159.498 1.61808 157.726 1.42608 155.955 1.81008C154.184 1.61808 152.413 1.71408 150.642 1.81008C148.871 1.90608 147.321 1.90609 145.55 1.90609C143.779 1.90609 142.008 1.90608 140.237 2.09808C138.466 1.90608 136.916 2.38608 135.366 2.00208C133.595 2.29008 132.045 2.00209 130.274 2.19409C128.061 2.38609 125.847 2.48208 123.633 2.38609C122.083 2.29008 120.755 2.48208 119.426 2.57808C118.098 2.67408 116.991 2.67409 115.884 2.67409C114.556 2.67409 113.228 2.48209 111.899 2.67409C109.464 3.05809 106.807 2.67408 104.151 3.05808C101.715 2.77008 99.2801 3.25008 96.8448 3.25008C95.7379 3.25008 94.4096 3.15408 93.3026 3.34608C91.7529 3.63408 89.9818 3.53808 88.2107 3.53808C87.3252 3.44208 86.2182 3.44209 85.1113 3.63409C84.0044 3.82609 82.676 4.01808 81.3477 3.82608C80.6835 3.73008 80.0194 3.82609 79.1338 3.92209C77.8055 3.92209 76.4772 4.01808 74.9275 4.01808C73.5991 4.01808 72.2708 4.49808 70.7211 4.21008C70.2783 4.11408 69.8355 4.30608 69.8355 4.49808C69.6142 4.78608 69.3928 5.07409 68.7286 4.59409C68.5072 4.40209 67.8431 4.40209 67.1789 4.40209C66.2933 4.40209 65.6292 4.59408 64.7436 4.49808C64.0795 4.40208 63.1939 4.78609 62.3084 4.59409C61.8656 4.49809 61.8656 4.78609 61.6442 4.88209C61.6442 5.17009 61.4228 5.26608 60.7586 5.07408C58.9875 4.78608 57.4378 4.69009 55.8881 5.36209C55.4453 5.55409 55.4453 5.45808 55.2239 5.26608C55.2239 5.07408 55.4453 4.88209 54.5598 4.88209C52.7887 5.07409 51.0176 5.36209 49.2465 5.36209C47.254 5.36209 45.4829 5.55408 43.7118 5.65008C39.9482 5.84208 36.1846 5.84208 32.1996 6.22608C29.9857 6.41808 27.5505 6.51409 25.3366 6.80209C24.6724 6.89809 24.0083 6.89808 23.5655 6.89808C22.6799 6.89808 21.573 7.18609 20.6875 7.09009C19.5805 6.99409 18.695 7.18608 17.588 7.37808C16.9239 7.47408 16.2597 7.47409 15.5955 7.57009C12.9389 7.57009 10.5036 7.85809 8.28974 8.33809C7.84697 8.43409 7.1828 8.43409 6.51864 8.53009C5.85448 8.72209 5.4117 8.72208 4.52615 8.62608C2.97643 8.43408 1.42672 8.43408 0.0983948 8.91408C0.0983948 9.01008 -0.122993 9.10608 0.0983948 9.20208C0.0983948 9.29808 0.319781 9.29808 0.54117 9.39408C0.983946 9.39408 1.20533 9.39409 1.64811 9.29809C2.09088 9.20209 2.53366 9.10608 2.97643 9.20208C5.19031 9.68208 7.40419 9.49009 9.61807 9.29809C10.725 9.20209 11.6106 9.39409 12.4961 9.01009C13.1603 8.72209 14.0458 8.72208 14.71 8.72208C15.8169 8.72208 16.7025 8.62608 17.588 8.62608C19.3591 8.62608 20.6875 8.33808 22.0158 7.76208C22.4586 7.47408 23.3441 7.47408 24.0083 7.66608C25.3366 8.24208 26.6649 8.14608 28.436 8.14608C29.7644 8.14608 31.0927 7.95408 32.6424 7.95408C33.0852 7.95408 33.5279 8.05008 33.9707 7.85808C35.0777 7.37808 37.0702 7.57009 38.3985 7.28208C38.8413 7.18608 39.284 7.28208 39.7268 7.28208C40.391 7.37809 41.0551 7.37808 41.4979 7.37808C44.8187 7.37808 48.1395 7.09008 51.4604 6.89808L52.1245 6.70608C52.5673 6.32208 53.0101 6.51408 53.8956 6.51408C54.7812 6.51408 56.1095 6.61008 56.9951 6.51408C58.7662 6.32208 60.5373 6.03408 62.5297 6.22608C64.0795 5.84208 65.6292 6.03408 67.1789 5.93808H73.3777C74.0419 5.93808 74.9275 6.03408 75.5916 5.65008C75.5916 5.45808 75.813 5.45808 76.0344 5.55408C76.6986 6.13008 78.0269 5.93809 78.9124 5.84209C80.6835 5.65009 82.2333 5.55408 84.0044 5.17008C84.4471 5.07408 84.6685 5.26609 84.8899 5.36209C85.3327 5.55409 85.5541 5.55408 85.7755 5.55408C87.5466 5.26608 89.3177 5.36208 91.0888 5.26608C93.0813 5.17008 94.8524 5.26608 96.8448 5.26608C97.7304 5.26608 98.616 5.36208 99.2801 5.26608C101.494 4.97808 103.486 4.97808 105.7 4.97808C107.471 4.97808 108.8 5.07408 110.571 4.69008C111.014 4.59408 111.678 4.69008 112.121 4.69008C116.106 4.69008 120.091 4.78609 123.854 4.40209H124.961C126.511 4.40209 127.839 4.40208 129.389 4.30608C130.939 4.21008 132.267 4.40209 133.817 4.40209C134.702 4.30609 135.588 4.40208 136.252 4.21008C137.359 3.92208 138.244 4.40208 139.13 4.21008C140.68 3.82608 142.008 4.01808 143.558 4.01808C145.55 4.01808 147.543 4.11408 149.314 4.01808C151.97 3.82608 154.627 3.73008 157.062 3.73008C157.726 3.73008 158.391 3.82608 158.833 3.73008C159.94 3.53808 160.826 3.53809 161.711 3.63409C162.597 3.73009 163.483 3.44209 164.589 3.63409C165.475 3.82609 166.582 3.53809 167.689 3.63409C168.574 3.73009 169.46 3.82609 170.567 3.63409C171.453 3.44209 172.559 3.63408 173.666 3.53808C174.773 3.44208 175.88 3.34608 177.209 3.34608C178.537 3.34608 179.644 3.44209 180.972 3.44209C182.301 3.44209 183.407 3.25008 184.514 3.34608C185.843 3.44208 187.171 3.44209 188.499 3.44209C190.492 3.44209 192.706 3.63408 194.477 3.25008C194.92 3.15408 195.362 3.25008 195.805 3.25008C197.798 3.44208 199.569 3.53808 201.561 3.25008C203.111 3.05808 204.661 2.77009 206.21 3.15409C209.974 3.15409 213.959 3.05808 217.944 3.05808C219.272 2.86608 220.822 2.96208 222.15 2.96208C223.036 2.96208 223.7 3.15408 224.586 2.86608C226.799 3.05808 228.792 2.77008 231.006 2.77008C233.884 2.77008 236.983 2.96209 240.083 2.67409H240.747C242.297 2.96209 243.625 2.77009 245.175 2.67409C245.617 2.57809 245.839 2.67409 246.282 2.67409C248.717 2.96209 251.152 3.05809 253.809 2.67409C254.473 2.57809 255.137 2.57809 255.801 2.67409C256.908 2.86609 258.015 2.86609 259.122 2.67409C260.008 2.48209 260.893 2.48209 261.779 2.67409C262.222 2.77009 262.886 2.77008 263.328 2.77008H270.634C271.52 2.86608 272.627 2.86608 273.512 2.77008C275.726 2.57808 277.719 2.77008 279.933 2.77008C280.818 2.77008 281.925 2.86608 283.032 2.57808C284.139 2.29008 285.024 2.19409 286.131 2.67409C286.574 2.77009 287.238 2.77008 287.902 2.77008C289.895 2.77008 291.887 2.86609 293.88 2.67409C295.651 2.96209 297.644 2.77008 299.415 2.77008C301.186 2.77008 302.957 2.86608 304.728 2.77008C306.499 2.67408 308.27 2.77008 310.041 2.77008C313.805 2.77008 317.568 2.67408 321.111 2.96208C321.332 3.05808 321.775 3.05808 321.996 2.96208C323.325 2.77008 324.653 2.96208 326.203 3.05808C328.859 3.25008 331.737 3.15408 334.615 2.77008C335.279 2.67408 335.944 2.67408 336.608 2.77008C338.6 3.05808 340.593 3.15409 342.585 3.15409C344.799 3.15409 346.792 3.25008 348.784 3.25008C350.112 3.25008 351.441 3.34608 352.548 3.34608C354.097 3.34608 355.426 3.44208 356.975 3.25008C358.304 3.05808 359.632 3.44209 361.182 3.44209H362.51C364.724 3.25009 366.495 3.53808 368.488 3.53808C368.709 3.53808 368.709 3.63409 368.93 3.63409V3.73008C369.152 3.92208 368.93 4.01808 368.709 4.01808C368.266 4.01808 367.823 4.11408 367.602 4.01808C366.717 3.63408 365.167 3.82608 363.839 4.01808C363.174 4.11408 362.51 4.11409 361.846 4.11409H352.769C351.884 4.11409 350.998 4.21008 350.334 4.30608C349.227 4.49808 348.563 3.92209 347.456 4.11409C346.792 4.21009 346.127 4.11408 345.463 4.21008C344.799 4.30608 344.356 4.30608 343.692 4.30608C342.807 4.30608 342.143 4.40208 341.257 4.21008C340.371 4.01808 339.486 4.40208 338.6 4.21008H331.073C330.188 4.21008 329.523 4.40208 328.859 4.30608C327.088 4.01808 325.317 4.59408 323.767 4.21008C321.775 4.49808 320.004 4.40209 318.011 4.40209H312.698C310.927 4.40209 309.156 4.49808 307.385 4.49808C305.392 4.49808 303.621 4.78608 301.629 4.49808C301.407 4.40208 300.964 4.49809 300.522 4.59409C299.636 4.59409 298.529 4.69008 297.422 4.69008C293.437 4.69008 289.231 4.69009 285.246 4.88209C282.811 4.97809 280.154 4.97808 277.719 4.97808C275.726 4.97808 273.512 5.17008 271.52 5.65008C271.298 5.74608 270.856 5.74609 270.634 5.84209C270.191 5.26609 269.085 5.65008 268.42 5.55408C266.871 5.36208 265.321 5.36208 263.55 5.55408C263.107 5.55408 262.664 5.65008 262.222 5.55408C261.336 5.36208 260.45 5.55408 259.786 5.55408C258.015 5.55408 256.244 5.74608 254.473 5.65008C253.145 5.55408 251.816 5.74608 250.709 6.03408C250.045 6.13008 249.602 6.13008 248.938 6.03408C248.274 6.03408 247.61 6.13009 246.724 6.13009C246.282 6.13009 245.617 6.22608 244.953 6.22608C243.625 6.03408 242.297 6.32208 240.968 6.41808C240.083 6.51408 239.419 6.61008 238.754 6.51408C238.09 6.41808 237.647 6.61008 237.869 6.89808C238.09 7.95408 239.861 8.43408 241.854 7.85808C242.518 7.66608 242.961 7.66608 243.404 7.76208C244.732 7.85808 245.617 8.14608 246.946 7.85808C247.389 7.76208 248.053 7.76208 248.717 7.76208C250.267 7.76208 251.595 7.76208 252.923 7.66608C254.473 7.57008 255.801 7.47408 257.351 7.47408H261.557C262.222 7.47408 263.107 7.47408 263.993 7.37808C265.321 7.18608 266.871 6.99408 268.42 7.18608C269.085 7.28208 269.749 7.18609 270.191 7.09009C271.077 6.89809 271.963 7.18609 272.627 7.09009C273.734 6.80209 274.398 7.09008 275.505 7.18608C276.833 7.28208 278.383 7.28209 279.711 7.09009C279.933 6.99409 280.375 6.89808 280.597 6.99408C281.704 7.18608 282.368 6.89809 283.032 6.80209C283.918 6.70609 285.024 6.89808 285.467 6.41808C285.689 6.32208 285.91 6.32209 286.131 6.32209C287.238 6.32209 288.124 6.70608 289.231 6.41808H289.452C290.116 6.99408 291.445 6.80208 292.33 6.89808C293.437 6.89808 294.323 6.80208 295.208 6.89808C296.315 6.89808 297.422 6.89808 297.865 6.51408C298.086 6.32208 298.529 6.41808 298.75 6.51408C299.415 6.80208 300.079 6.70608 300.743 6.70608C301.407 6.70608 302.071 6.61009 302.957 6.61009C304.064 6.61009 305.392 6.70608 306.499 6.51408C307.827 6.32208 308.934 6.61009 310.263 6.61009H311.37C313.583 6.61009 315.576 6.61008 317.79 6.41808C320.004 6.22608 322.218 6.61009 324.431 6.32209C325.096 6.22609 325.981 6.22608 326.645 6.41808C327.531 6.61008 328.416 6.51408 329.302 6.41808C332.844 6.03408 336.386 6.32208 339.707 6.22608C342.143 6.13008 344.799 6.22608 347.234 6.22608C348.563 6.32208 349.448 5.93808 349.891 5.45808C351.441 6.22608 351.441 6.32208 353.212 6.22608C354.762 6.13008 356.533 6.22608 358.082 6.03408H359.632C360.739 6.32208 362.067 6.22608 363.396 6.22608C365.831 6.22608 368.266 6.13009 370.702 6.32209C372.03 6.41809 373.358 6.13009 374.908 6.13009C375.129 6.13009 375.351 5.93809 375.572 5.84209C376.236 5.26609 376.236 5.65009 376.236 5.84209C376.458 6.13009 376.9 6.22608 377.343 6.22608C378.229 6.22608 379.336 6.03408 380 6.22608C380.885 6.51408 382.214 6.03409 383.321 6.13009C384.428 6.22609 385.535 6.32208 386.641 6.51408H387.748C389.962 6.51408 391.955 6.51408 394.169 6.51408H397.268C397.932 6.51408 398.375 6.41808 399.039 6.51408C401.032 6.61008 403.024 6.51408 405.017 6.41808C406.345 6.32208 407.673 6.32208 409.002 6.51408C409.666 6.61008 410.551 6.41808 411.437 6.41808C411.658 6.41808 411.88 6.32208 412.322 6.41808C413.872 6.70608 415.422 6.61008 416.972 6.41808L419.628 6.13009C420.735 6.03409 421.178 6.70608 422.285 6.51408C422.949 6.41808 423.392 6.51409 424.056 6.61009H427.598C428.705 6.61009 429.591 6.32208 430.698 6.51408C431.805 6.70608 433.133 6.70608 434.24 6.70608H435.347C435.789 6.70608 436.232 6.70609 436.454 6.61009C437.339 6.22609 438.225 6.51408 439.332 6.51408H448.409C449.073 6.51408 449.737 6.32208 449.958 5.93808C450.18 5.45808 450.401 4.88208 449.958 4.30608ZM235.655 6.41808C234.548 6.41808 233.662 6.32208 232.777 6.70608C232.556 6.80208 232.113 6.80208 232.113 6.70608C231.227 6.51408 230.12 6.61009 229.235 6.61009C224.586 6.61009 220.158 7.09008 215.509 6.89808C215.509 6.89808 215.287 6.89808 215.287 6.99408C214.18 7.28208 212.852 7.18608 211.745 7.18608C211.081 7.18608 210.417 7.18608 209.974 7.28208C208.646 7.57009 207.096 7.57008 205.768 7.47408C204.439 7.37808 203.554 7.76208 202.225 7.95408C202.004 7.95408 201.783 8.14608 201.783 8.24208C201.561 8.33808 201.561 8.53009 201.561 8.53009C201.34 8.62609 201.118 8.72208 200.897 8.72208C200.454 8.62608 200.454 8.43409 200.454 8.33809C200.454 8.24209 200.676 8.14609 200.897 8.05009C201.118 7.76209 200.897 7.66608 200.233 7.66608C199.569 7.76208 198.683 7.85808 198.019 7.85808C196.248 7.66608 194.255 7.85808 192.484 7.85808C191.377 7.85808 190.492 7.85808 189.606 7.95408C188.721 8.05008 187.835 8.33808 186.95 8.24208H184.072C182.743 8.33808 181.415 8.24208 180.087 8.43408C179.201 8.53008 178.316 8.72208 177.43 8.62608C176.102 8.53008 175.216 8.62609 174.109 8.81809C173.002 9.01009 172.117 9.10608 170.788 8.91408C170.124 8.81808 169.017 8.81809 168.796 9.01009C167.91 9.39409 167.025 9.20208 166.139 9.20208H163.261C162.154 9.20208 161.269 9.39408 160.162 9.39408C158.833 9.39408 157.505 9.39408 156.62 9.58608C155.513 9.77808 154.406 9.49008 153.299 9.68208C151.306 9.97008 149.092 9.97008 147.1 10.0661C144.443 10.1621 142.229 10.2581 140.458 11.0261C140.458 11.1221 140.015 11.0261 139.794 11.0261C139.794 10.9301 139.794 10.8341 140.015 10.7381C140.015 10.4501 139.794 10.3541 139.351 10.4501L137.359 10.7381C137.137 10.7381 136.916 10.9301 137.137 11.0261C137.137 11.1221 137.359 11.1221 137.58 11.1221C138.023 11.0261 138.466 10.9301 138.687 11.1221C138.687 11.2181 138.466 11.4101 138.244 11.5061C138.023 11.6021 137.58 11.6981 138.023 11.8901C138.244 11.9861 138.466 12.0821 138.909 12.0821C139.794 12.0821 140.901 11.8901 142.008 11.8901C143.115 11.8901 144 11.7941 144.443 11.4101C144.665 11.2181 145.55 11.2181 145.772 11.4101C146.436 11.8901 147.321 11.8901 148.207 11.6021C149.314 11.2181 150.421 10.9301 151.749 11.2181C152.192 11.3141 152.856 11.2181 153.52 11.1221C154.184 11.0261 154.406 10.8341 154.406 10.4501C154.406 10.3541 154.848 10.1621 155.07 10.1621C155.513 10.1621 155.734 10.3541 155.955 10.4501C155.955 10.5461 155.955 10.6421 155.734 10.7381C155.734 11.1221 155.955 11.2181 156.62 11.2181C157.948 11.2181 158.169 11.2181 158.169 10.7381C158.169 10.4501 158.391 10.2581 158.833 10.3541C159.498 10.4501 159.94 10.5461 160.383 10.7381C160.826 10.8341 161.269 10.9301 161.711 10.9301C163.261 10.9301 164.589 10.9301 165.918 10.8341C168.796 10.6421 171.453 10.2581 174.109 10.2581C174.773 10.2581 175.438 9.97008 176.102 10.1621C177.43 10.5461 178.537 10.0661 179.644 10.0661C180.087 10.0661 180.751 9.97008 181.194 10.0661C182.301 10.2581 183.186 10.0661 184.072 10.0661C185.621 10.0661 186.95 9.49008 188.499 9.87408C190.935 9.68208 193.591 9.68208 196.027 9.68208C197.133 9.68208 198.24 9.49008 198.905 9.10608C199.569 8.72208 199.347 9.01008 199.79 9.20208C200.012 9.29808 200.454 9.39408 200.676 9.39408L202.89 9.10608H205.989C207.096 9.10608 208.424 8.91408 209.531 9.10608C209.974 9.10608 210.417 9.10609 210.86 9.01009C213.073 8.91409 215.066 8.53008 217.28 8.62608L217.723 8.43408C217.944 8.33808 217.944 8.24208 218.165 8.43408C218.608 8.53008 218.83 8.72208 219.494 8.72208C220.601 8.72208 221.708 8.53008 222.814 8.62608C223.036 8.72208 223.257 8.53008 223.036 8.43408C223.036 8.33808 223.036 8.14608 223.257 8.24208C225.028 8.53008 226.799 8.33809 228.571 8.33809H234.327C235.212 8.33809 235.212 8.14608 235.212 7.76208C234.991 7.47408 234.991 7.37808 235.876 7.37808C236.319 7.37808 236.319 7.28209 236.541 7.09009C236.762 6.89809 237.647 6.70608 236.983 6.41808C236.541 6.22608 236.098 6.41808 235.655 6.41808ZM135.588 11.0261H133.374C132.267 10.9301 131.16 11.3141 130.053 11.2181C128.061 11.0261 126.732 11.4101 125.182 11.6021C124.518 11.6981 124.518 11.9861 124.518 12.2741V12.4661C126.068 12.5621 127.839 12.5621 129.389 12.5621C130.053 12.5621 130.717 12.4661 130.939 12.2741C131.381 11.9861 131.824 11.6981 132.267 11.5061C132.931 11.2181 133.817 11.6981 134.702 11.5061C134.924 11.4101 135.366 11.5061 135.588 11.5061C135.809 11.5061 136.03 11.3141 136.03 11.2181C135.809 11.2181 135.809 11.0261 135.588 11.0261ZM123.411 11.6981C122.969 11.6021 122.526 11.6021 122.083 11.6021C120.976 11.6021 119.869 11.6021 118.984 11.9861C118.541 12.1781 117.655 12.2741 116.991 12.0821C116.106 11.8901 115.22 11.9861 114.334 12.2741C113.449 12.5621 113.449 12.6581 112.121 13.2341C111.899 13.3301 111.899 13.3301 112.121 13.4261C112.785 13.4261 113.449 13.4261 113.892 13.2341C114.777 12.8501 115.884 12.7541 117.213 12.8501C119.426 13.0421 121.862 12.7541 124.076 12.7541C124.297 12.7541 124.297 12.5621 124.518 12.5621L123.854 12.2741C123.633 12.0821 123.854 11.7941 123.411 11.6981Z" fill="#2264DB"/>
</svg>
