<svg width="48" height="48" viewBox="0 0 48 48" fill="none" xmlns="http://www.w3.org/2000/svg">
<rect width="48" height="48" rx="24" fill="#F2F4F7"/>
<path fill-rule="evenodd" clip-rule="evenodd" d="M36 24C36 30.6274 30.6274 36 24 36C17.3726 36 12 30.6274 12 24C12 17.3726 17.3726 12 24 12C30.6274 12 36 17.3726 36 24ZM24.43 20.8589C23.2628 21.3444 20.9301 22.3492 17.4319 23.8733C16.8638 24.0992 16.5663 24.3202 16.5392 24.5363C16.4934 24.9015 16.9507 25.0453 17.5735 25.2411C17.6582 25.2678 17.746 25.2954 17.8359 25.3246C18.4486 25.5238 19.2728 25.7568 19.7013 25.766C20.0899 25.7744 20.5237 25.6142 21.0026 25.2853C24.2712 23.079 25.9584 21.9638 26.0643 21.9398C26.139 21.9228 26.2426 21.9015 26.3128 21.9638C26.3829 22.0262 26.376 22.1443 26.3686 22.176C26.3233 22.3691 24.5281 24.0381 23.5991 24.9018C23.3095 25.171 23.1041 25.362 23.0621 25.4056C22.968 25.5033 22.8721 25.5958 22.78 25.6846C22.2108 26.2333 21.7839 26.6448 22.8036 27.3168C23.2936 27.6397 23.6858 27.9067 24.077 28.1731C24.5042 28.4641 24.9303 28.7543 25.4816 29.1157C25.6221 29.2077 25.7562 29.3034 25.8869 29.3965C26.3841 29.751 26.8307 30.0694 27.3826 30.0186C27.7032 29.9891 28.0345 29.6876 28.2027 28.7884C28.6002 26.6631 29.3816 22.0585 29.5622 20.161C29.578 19.9947 29.5581 19.782 29.5422 19.6886C29.5262 19.5952 29.4928 19.4621 29.3714 19.3636C29.2276 19.2469 29.0056 19.2223 28.9064 19.2241C28.455 19.232 27.7626 19.4728 24.43 20.8589Z" fill="#98A2B3"/>
</svg>
